<?xml version="1.0" encoding="UTF-8" standalone="no"?><svg xmlns="http://www.w3.org/2000/svg" xmlns:xlink="http://www.w3.org/1999/xlink" contentScriptType="text/ecmascript" fill="#000000" width="433" zoomAndPan="magnify" contentStyleType="text/css" viewBox="39.0 123.1 432.8 243.3" height="243" preserveAspectRatio="xMidYMid meet" version="1"><g id="change1_1"><path fill="#00aeef" d="M338.86686,249.99206a4.84321,4.84321,0,1,1-4.86917-4.85383A4.7589,4.7589,0,0,1,338.86686,249.99206Z"/></g><g id="change1_2"><path fill="#00aeef" d="M349.23194,250.04269a4.81485,4.81485,0,1,1-4.6794-4.876A4.72994,4.72994,0,0,1,349.23194,250.04269Z"/></g><g id="change1_3"><path fill="#00aeef" d="M328.13607,249.93785a4.80257,4.80257,0,1,1-4.809-4.75915A4.73352,4.73352,0,0,1,328.13607,249.93785Z"/></g><g id="change1_4"><path fill="#00aeef" d="M244.3947,250.009a4.803,4.803,0,1,1-4.73789-4.83023A4.72931,4.72931,0,0,1,244.3947,250.009Z"/></g><g id="change1_5"><path fill="#00aeef" d="M233.6729,249.96515a4.77119,4.77119,0,1,1-4.8244-4.755A4.72361,4.72361,0,0,1,233.6729,249.96515Z"/></g><g id="change1_6"><path fill="#00aeef" d="M250.05617,245.20047A4.78153,4.78153,0,1,1,245.205,249.911,4.7268,4.7268,0,0,1,250.05617,245.20047Z"/></g><g id="change1_7"><path fill="#00aeef" d="M338.81469,239.51638a4.79118,4.79118,0,1,1-4.86162-4.72A4.72814,4.72814,0,0,1,338.81469,239.51638Z"/></g><g id="change1_8"><path fill="#00aeef" d="M355.10844,245.1905a4.791,4.791,0,1,1-4.79123,4.79042A4.72347,4.72347,0,0,1,355.10844,245.1905Z"/></g><g id="change1_9"><path fill="#00aeef" d="M370.26411,250.04485a4.76389,4.76389,0,1,1-4.73639-4.82647A4.74221,4.74221,0,0,1,370.26411,250.04485Z"/></g><g id="change1_10"><path fill="#00aeef" d="M365.37044,265.42166a4.75092,4.75092,0,1,1,4.877-4.54436A4.76478,4.76478,0,0,1,365.37044,265.42166Z"/></g><g id="change1_11"><path fill="#00aeef" d="M349.1722,260.69213a4.75475,4.75475,0,1,1-4.661-4.77463A4.74514,4.74514,0,0,1,349.1722,260.69213Z"/></g><g id="change1_12"><path fill="#00aeef" d="M260.35166,245.21838a4.76325,4.76325,0,1,1-4.73528,4.82757A4.73766,4.73766,0,0,1,260.35166,245.21838Z"/></g><g id="change1_13"><path fill="#00aeef" d="M344.47413,234.82428a4.76417,4.76417,0,1,1-4.81946,4.74342A4.74139,4.74139,0,0,1,344.47413,234.82428Z"/></g><g id="change1_14"><path fill="#00aeef" d="M355.09652,265.43565a4.7635,4.7635,0,1,1,4.77415-4.78871A4.7372,4.7372,0,0,1,355.09652,265.43565Z"/></g><g id="change1_15"><path fill="#00aeef" d="M244.33222,260.43327a4.741,4.741,0,1,1-4.64525-4.79793A4.76731,4.76731,0,0,1,244.33222,260.43327Z"/></g><g id="change1_16"><path fill="#00aeef" d="M212.84607,239.59594a4.731,4.731,0,1,1-4.72248-4.7399A4.76917,4.76917,0,0,1,212.84607,239.59594Z"/></g><g id="change1_17"><path fill="#00aeef" d="M223.2395,249.9412a4.73121,4.73121,0,1,1-4.77129-4.69106A4.77463,4.77463,0,0,1,223.2395,249.9412Z"/></g><g id="change1_18"><path fill="#00aeef" d="M271.03249,254.72172a4.741,4.741,0,1,1,4.777-4.66612A4.76548,4.76548,0,0,1,271.03249,254.72172Z"/></g><g id="change1_19"><path fill="#00aeef" d="M260.34036,234.856a4.73151,4.73151,0,1,1-4.69225,4.77011A4.77434,4.77434,0,0,1,260.34036,234.856Z"/></g><g id="change1_20"><path fill="#00aeef" d="M338.764,260.41718a4.74071,4.74071,0,1,1-4.66128-4.78186A4.76548,4.76548,0,0,1,338.764,260.41718Z"/></g><g id="change1_21"><path fill="#00aeef" d="M323.62224,234.84714a4.74046,4.74046,0,1,1-4.73157,4.7116A4.76573,4.76573,0,0,1,323.62224,234.84714Z"/></g><g id="change1_22"><path fill="#00aeef" d="M223.23,239.56251a4.72162,4.72162,0,1,1-4.74643-4.697A4.79271,4.79271,0,0,1,223.23,239.56251Z"/></g><g id="change1_23"><path fill="#00aeef" d="M233.62346,260.43891a4.722,4.722,0,1,1-4.65825-4.78519A4.78829,4.78829,0,0,1,233.62346,260.43891Z"/></g><g id="change1_24"><path fill="#00aeef" d="M239.53509,244.27372a4.68667,4.68667,0,1,1,4.74289-4.55513A4.78718,4.78718,0,0,1,239.53509,244.27372Z"/></g><g id="change1_25"><path fill="#00aeef" d="M328.05522,260.33586a4.72173,4.72173,0,1,1-4.76127-4.68214A4.791,4.791,0,0,1,328.05522,260.33586Z"/></g><g id="change1_26"><path fill="#00aeef" d="M281.47889,265.07449a4.69911,4.69911,0,1,1,4.68269-4.75179A4.78825,4.78825,0,0,1,281.47889,265.07449Z"/></g><g id="change1_27"><path fill="#00aeef" d="M275.76813,239.64843a4.69955,4.69955,0,1,1-4.6745-4.75976A4.792,4.792,0,0,1,275.76813,239.64843Z"/></g><g id="change1_28"><path fill="#00aeef" d="M233.5879,239.602a4.686,4.686,0,1,1-4.59739-4.70091A4.78056,4.78056,0,0,1,233.5879,239.602Z"/></g><g id="change1_29"><path fill="#00aeef" d="M202.12324,239.53918a4.69875,4.69875,0,1,1-4.78373-4.6507A4.79133,4.79133,0,0,1,202.12324,239.53918Z"/></g><g id="change1_30"><path fill="#00aeef" d="M355.10181,244.2984a4.71137,4.71137,0,1,1,4.71681-4.74207A4.79525,4.79525,0,0,1,355.10181,244.2984Z"/></g><g id="change1_31"><path fill="#00aeef" d="M281.48264,254.66772a4.68631,4.68631,0,1,1,4.66633-4.632A4.78014,4.78014,0,0,1,281.48264,254.66772Z"/></g><g id="change1_32"><path fill="#00aeef" d="M312.92473,245.25962a4.7219,4.7219,0,1,1-4.70605,4.73736A4.79288,4.79288,0,0,1,312.92473,245.25962Z"/></g><g id="change1_33"><path fill="#00aeef" d="M212.81363,249.9877a4.69894,4.69894,0,1,1-4.72935-4.70512A4.79054,4.79054,0,0,1,212.81363,249.9877Z"/></g><g id="change1_34"><path fill="#00aeef" d="M365.55977,266.36776a4.69986,4.69986,0,1,1-4.75709,4.67738A4.79161,4.79161,0,0,1,365.55977,266.36776Z"/></g><g id="change1_35"><path fill="#00aeef" d="M254.7073,239.62555a4.72171,4.72171,0,1,1-4.68345-4.76A4.79132,4.79132,0,0,1,254.7073,239.62555Z"/></g><g id="change1_36"><path fill="#00aeef" d="M250.02887,255.67665a4.69976,4.69976,0,1,1-4.74175,4.69271A4.79175,4.79175,0,0,1,250.02887,255.67665Z"/></g><g id="change1_37"><path fill="#00aeef" d="M355.06473,275.77769a4.71188,4.71188,0,1,1,4.75389-4.705A4.79552,4.79552,0,0,1,355.06473,275.77769Z"/></g><g id="change1_38"><path fill="#00aeef" d="M207.91409,233.54108a4.64755,4.64755,0,1,1,4.84194-4.407A4.73033,4.73033,0,0,1,207.91409,233.54108Z"/></g><g id="change1_39"><path fill="#00aeef" d="M271.27986,255.71357a4.66144,4.66144,0,1,1-.49372,9.30961,4.57461,4.57461,0,0,1-4.35337-4.89317A4.6354,4.6354,0,0,1,271.27986,255.71357Z"/></g><g id="change1_40"><path fill="#00aeef" d="M218.53734,265.0278a4.65252,4.65252,0,1,1,4.62332-4.64412A4.73629,4.73629,0,0,1,218.53734,265.0278Z"/></g><g id="change1_41"><path fill="#00aeef" d="M260.42,265.04589a4.67046,4.67046,0,1,1,4.62916-4.67406A4.76844,4.76844,0,0,1,260.42,265.04589Z"/></g><g id="change1_42"><path fill="#00aeef" d="M338.64715,228.93028a4.62351,4.62351,0,1,1-4.58914-4.65795A4.671,4.671,0,0,1,338.64715,228.93028Z"/></g><g id="change1_43"><path fill="#00aeef" d="M313.01086,244.21136a4.62452,4.62452,0,1,1,4.55305-4.69462A4.67393,4.67393,0,0,1,313.01086,244.21136Z"/></g><g id="change1_44"><path fill="#00aeef" d="M375.82955,256.04857a4.62444,4.62444,0,1,1-4.55854,4.68916A4.67325,4.67325,0,0,1,375.82955,256.04857Z"/></g><g id="change1_45"><path fill="#00aeef" d="M296.48009,260.31183a4.62413,4.62413,0,1,1-4.68743-4.56023A4.67323,4.67323,0,0,1,296.48009,260.31183Z"/></g><g id="change1_46"><path fill="#00aeef" d="M117.93857,260.40634a4.55235,4.55235,0,1,1-4.44733-4.58331A4.47326,4.47326,0,0,1,117.93857,260.40634Z"/></g><g id="change1_47"><path fill="#00aeef" d="M113.36843,254.534a4.5526,4.5526,0,1,1,4.57022-4.46051A4.473,4.473,0,0,1,113.36843,254.534Z"/></g><g id="change1_48"><path fill="#00aeef" d="M375.96128,245.41155a4.57126,4.57126,0,1,1-4.637,4.54037A4.50043,4.50043,0,0,1,375.96128,245.41155Z"/></g><g id="change1_49"><path fill="#00aeef" d="M307.11643,249.98144a4.56993,4.56993,0,1,1-4.60663-4.56989A4.49856,4.49856,0,0,1,307.11643,249.98144Z"/></g><g id="change1_50"><path fill="#00aeef" d="M197.48614,233.44884a4.55294,4.55294,0,1,1,4.49074-4.53984A4.47247,4.47247,0,0,1,197.48614,233.44884Z"/></g><g id="change1_51"><path fill="#00aeef" d="M291.84756,245.41155a4.57019,4.57019,0,1,1-4.56079,4.61577A4.49856,4.49856,0,0,1,291.84756,245.41155Z"/></g><g id="change1_52"><path fill="#00aeef" d="M201.97688,249.96357a4.55226,4.55226,0,1,1-4.496-4.53477A4.47251,4.47251,0,0,1,201.97688,249.96357Z"/></g><g id="change1_53"><path fill="#00aeef" d="M281.45686,235.03485a4.55253,4.55253,0,1,1-4.54611,4.4845A4.47245,4.47245,0,0,1,281.45686,235.03485Z"/></g><g id="change1_54"><path fill="#00aeef" d="M107.50022,249.99351a4.50735,4.50735,0,1,1-4.49529-4.51993A4.42329,4.42329,0,0,1,107.50022,249.99351Z"/></g><g id="change1_55"><path fill="#00aeef" d="M113.36069,243.77509a4.48527,4.48527,0,1,1,4.51-4.49618A4.41938,4.41938,0,0,1,113.36069,243.77509Z"/></g><g id="change1_56"><path fill="#00aeef" d="M317.44757,260.33327a4.50754,4.50754,0,1,1-4.54965-4.46532A4.42724,4.42724,0,0,1,317.44757,260.33327Z"/></g><g id="change1_57"><path fill="#00aeef" d="M307.03121,260.30418a4.48468,4.48468,0,1,1-4.59289-4.41341A4.42,4.42,0,0,1,307.03121,260.30418Z"/></g><g id="change1_58"><path fill="#00aeef" d="M370.00866,281.52852a4.50785,4.50785,0,1,1-4.43961-4.57542A4.42971,4.42971,0,0,1,370.00866,281.52852Z"/></g><g id="change1_59"><path fill="#00aeef" d="M285.94739,228.843a4.48458,4.48458,0,1,1-4.57482-4.43141A4.41912,4.41912,0,0,1,285.94739,228.843Z"/></g><g id="change1_60"><path fill="#00aeef" d="M244.128,271.04472a4.53573,4.53573,0,1,1-4.48364-4.514A4.45232,4.45232,0,0,1,244.128,271.04472Z"/></g><g id="change1_61"><path fill="#00aeef" d="M344.46732,266.582a4.48569,4.48569,0,1,1-4.53433,4.47194A4.41928,4.41928,0,0,1,344.46732,266.582Z"/></g><g id="change1_62"><path fill="#00aeef" d="M359.59224,281.49278a4.48506,4.48506,0,1,1-4.48945-4.5167A4.41925,4.41925,0,0,1,359.59224,281.49278Z"/></g><g id="change1_63"><path fill="#00aeef" d="M275.59028,228.89986a4.52107,4.52107,0,1,1-4.48014-4.52458A4.4326,4.4326,0,0,1,275.59028,228.89986Z"/></g><g id="change1_64"><path fill="#00aeef" d="M260.41689,266.57107a4.49573,4.49573,0,1,1-4.53316,4.45783A4.42,4.42,0,0,1,260.41689,266.57107Z"/></g><g id="change1_65"><path fill="#00aeef" d="M250.05929,275.58768a4.52133,4.52133,0,1,1,4.44717-4.55753A4.43886,4.43886,0,0,1,250.05929,275.58768Z"/></g><g id="change1_66"><path fill="#00aeef" d="M233.43755,271.12638a4.53605,4.53605,0,1,1-4.402-4.59567A4.45952,4.45952,0,0,1,233.43755,271.12638Z"/></g><g id="change1_67"><path fill="#00aeef" d="M218.64489,266.55887a4.50977,4.50977,0,1,1-4.64377,4.37135A4.43584,4.43584,0,0,1,218.64489,266.55887Z"/></g><g id="change1_68"><path fill="#00aeef" d="M191.552,239.52715a4.52095,4.52095,0,1,1-4.5439-4.4608A4.43912,4.43912,0,0,1,191.552,239.52715Z"/></g><g id="change1_69"><path fill="#00aeef" d="M296.36375,239.52954a4.50773,4.50773,0,1,1-4.56516-4.44979A4.42926,4.42926,0,0,1,296.36375,239.52954Z"/></g><g id="change1_70"><path fill="#00aeef" d="M307.06749,239.5261a4.52094,4.52094,0,1,1-4.54489-4.45975A4.439,4.439,0,0,1,307.06749,239.5261Z"/></g><g id="change1_71"><path fill="#00aeef" d="M128.584,271.12054a4.50765,4.50765,0,1,1-4.45345-4.56148A4.42876,4.42876,0,0,1,128.584,271.12054Z"/></g><g id="change1_72"><path fill="#00aeef" d="M218.50439,233.43225a4.53595,4.53595,0,1,1,4.53971-4.45791A4.45245,4.45245,0,0,1,218.50439,233.43225Z"/></g><g id="change1_73"><path fill="#00aeef" d="M191.51563,249.9764a4.48468,4.48468,0,1,1-4.52657-4.47961A4.41846,4.41846,0,0,1,191.51563,249.9764Z"/></g><g id="change1_74"><path fill="#00aeef" d="M328.15135,228.89216a4.521,4.521,0,1,1-4.48784-4.51686A4.43348,4.43348,0,0,1,328.15135,228.89216Z"/></g><g id="change1_75"><path fill="#00aeef" d="M212.65069,260.42756a4.536,4.536,0,1,1-4.4098-4.58794A4.45859,4.45859,0,0,1,212.65069,260.42756Z"/></g><g id="change1_76"><path fill="#00aeef" d="M124.12639,264.91152a4.53622,4.53622,0,1,1,4.486-4.51167A4.45223,4.45223,0,0,1,124.12639,264.91152Z"/></g><g id="change1_77"><path fill="#00aeef" d="M138.95454,260.34136a4.48456,4.48456,0,1,1-4.55568-4.45048A4.41842,4.41842,0,0,1,138.95454,260.34136Z"/></g><g id="change1_78"><path fill="#00aeef" d="M344.42139,224.38868a4.50764,4.50764,0,1,1-4.51124,4.50371A4.424,4.424,0,0,1,344.42139,224.38868Z"/></g><g id="change1_79"><path fill="#00aeef" d="M138.95454,249.96526a4.48459,4.48459,0,1,1-4.53771-4.46847A4.41971,4.41971,0,0,1,138.95454,249.96526Z"/></g><g id="change1_80"><path fill="#00aeef" d="M128.59745,249.96761a4.52094,4.52094,0,1,1-4.49759-4.50716A4.43545,4.43545,0,0,1,128.59745,249.96761Z"/></g><g id="change1_81"><path fill="#00aeef" d="M107.4676,239.26363a4.47487,4.47487,0,1,1-4.53846-4.44821A4.42215,4.42215,0,0,1,107.4676,239.26363Z"/></g><g id="change1_82"><path fill="#00aeef" d="M264.85385,228.91253a4.47517,4.47517,0,1,1-4.49545-4.49123A4.42308,4.42308,0,0,1,264.85385,228.91253Z"/></g><g id="change1_83"><path fill="#00aeef" d="M375.93819,266.59165a4.47589,4.47589,0,1,1-4.51816,4.46849A4.42508,4.42508,0,0,1,375.93819,266.59165Z"/></g><g id="change1_84"><path fill="#00aeef" d="M97.07416,249.91452a4.47495,4.47495,0,1,1-4.57863-4.40805A4.42395,4.42395,0,0,1,97.07416,249.91452Z"/></g><g id="change1_85"><path fill="#00aeef" d="M107.4676,260.32657a4.47487,4.47487,0,1,1-4.56069-4.426A4.42329,4.42329,0,0,1,107.4676,260.32657Z"/></g><g id="change1_86"><path fill="#00aeef" d="M291.825,233.34692a4.45129,4.45129,0,1,1,4.48168-4.38224A4.45918,4.45918,0,0,1,291.825,233.34692Z"/></g><g id="change1_87"><path fill="#00aeef" d="M197.43755,264.84147a4.46592,4.46592,0,1,1,4.45268-4.4047A4.43545,4.43545,0,0,1,197.43755,264.84147Z"/></g><g id="change1_88"><path fill="#00aeef" d="M296.31331,271.08583a4.457,4.457,0,1,1-4.36385-4.47637A4.443,4.443,0,0,1,296.31331,271.08583Z"/></g><g id="change1_89"><path fill="#00aeef" d="M201.875,218.46907a4.45048,4.45048,0,1,1-4.44644-4.41747A4.466,4.466,0,0,1,201.875,218.46907Z"/></g><g id="change1_90"><path fill="#00aeef" d="M208.08988,222.9681a4.466,4.466,0,1,1,4.49076-4.36663A4.43335,4.43335,0,0,1,208.08988,222.9681Z"/></g><g id="change1_91"><path fill="#00aeef" d="M134.46863,275.53254a4.4659,4.4659,0,1,1,4.46711-4.3903A4.43516,4.43516,0,0,1,134.46863,275.53254Z"/></g><g id="change1_92"><path fill="#00aeef" d="M140.398,249.96237a4.46565,4.46565,0,1,1,4.37237,4.485A4.4338,4.4338,0,0,1,140.398,249.96237Z"/></g><g id="change1_93"><path fill="#00aeef" d="M228.919,233.34692a4.45081,4.45081,0,1,1,4.43321-4.43076A4.464,4.464,0,0,1,228.919,233.34692Z"/></g><g id="change1_94"><path fill="#00aeef" d="M144.77471,264.83873a4.46405,4.46405,0,1,1,4.55064-4.30031A4.44082,4.44082,0,0,1,144.77471,264.83873Z"/></g><g id="change1_95"><path fill="#00aeef" d="M155.53535,254.43209a4.45112,4.45112,0,1,1,4.469-4.39507A4.45867,4.45867,0,0,1,155.53535,254.43209Z"/></g><g id="change1_96"><path fill="#00aeef" d="M228.92274,285.91136a4.4508,4.4508,0,1,1,4.4295-4.43442A4.46515,4.46515,0,0,1,228.92274,285.91136Z"/></g><g id="change1_97"><path fill="#00aeef" d="M176.65029,235.13019a4.45721,4.45721,0,1,1-4.46942,4.3708A4.44212,4.44212,0,0,1,176.65029,235.13019Z"/></g><g id="change1_98"><path fill="#00aeef" d="M254.436,228.94508a4.4513,4.4513,0,1,1-4.36448-4.49938A4.46321,4.46321,0,0,1,254.436,228.94508Z"/></g><g id="change1_99"><path fill="#00aeef" d="M181.09468,249.95349a4.457,4.457,0,1,1-4.411-4.4292A4.446,4.446,0,0,1,181.09468,249.95349Z"/></g><g id="change1_100"><path fill="#00aeef" d="M285.90381,271.08655a4.44089,4.44089,0,1,1-4.42094-4.461A4.47939,4.47939,0,0,1,285.90381,271.08655Z"/></g><g id="change1_101"><path fill="#00aeef" d="M144.89615,266.62552a4.44124,4.44124,0,1,1-4.47343,4.40854A4.476,4.476,0,0,1,144.89615,266.62552Z"/></g><g id="change1_102"><path fill="#00aeef" d="M159.99481,260.36925a4.44086,4.44086,0,1,1-4.44717-4.4348A4.47968,4.47968,0,0,1,159.99481,260.36925Z"/></g><g id="change1_103"><path fill="#00aeef" d="M170.38825,249.93533a4.44109,4.44109,0,1,1-4.487-4.395A4.4777,4.4777,0,0,1,170.38825,249.93533Z"/></g><g id="change1_104"><path fill="#00aeef" d="M239.65493,233.33744a4.44156,4.44156,0,1,1,4.37818-4.50376A4.47958,4.47958,0,0,1,239.65493,233.33744Z"/></g><g id="change1_105"><path fill="#00aeef" d="M212.55588,271.04833a4.44088,4.44088,0,1,1-4.45917-4.42283A4.47941,4.47941,0,0,1,212.55588,271.04833Z"/></g><g id="change1_106"><path fill="#00aeef" d="M271.13381,266.62552a4.44159,4.44159,0,1,1-4.5051,4.37686A4.47974,4.47974,0,0,1,271.13381,266.62552Z"/></g><g id="change1_107"><path fill="#00aeef" d="M285.89372,218.45485a4.431,4.431,0,1,1-4.47811-4.38366A4.48936,4.48936,0,0,1,285.89372,218.45485Z"/></g><g id="change1_108"><path fill="#00aeef" d="M97.03024,239.304a4.43078,4.43078,0,1,1-4.4172-4.44461A4.49029,4.49029,0,0,1,97.03024,239.304Z"/></g><g id="change1_109"><path fill="#00aeef" d="M365.48774,244.01845A4.43107,4.43107,0,1,1,369.932,239.601,4.49023,4.49023,0,0,1,365.48774,244.01845Z"/></g><g id="change1_110"><path fill="#00aeef" d="M239.53619,285.89178a4.43139,4.43139,0,1,1,4.48683-4.37491A4.48858,4.48858,0,0,1,239.53619,285.89178Z"/></g><g id="change1_111"><path fill="#00aeef" d="M134.43733,285.86992a4.4093,4.4093,0,1,1,4.4417-4.30217A4.50077,4.50077,0,0,1,134.43733,285.86992Z"/></g><g id="change1_112"><path fill="#00aeef" d="M191.42656,228.91412a4.39539,4.39539,0,1,1-4.30363-4.41345A4.4859,4.4859,0,0,1,191.42656,228.91412Z"/></g><g id="change1_113"><path fill="#00aeef" d="M218.47793,277.03932a4.42159,4.42159,0,1,1-4.39061,4.489A4.5014,4.5014,0,0,1,218.47793,277.03932Z"/></g><g id="change1_114"><path fill="#00aeef" d="M386.63362,265.08172a4.40943,4.40943,0,1,1,4.3604-4.38348A4.49572,4.49572,0,0,1,386.63362,265.08172Z"/></g><g id="change1_115"><path fill="#00aeef" d="M249.9455,277.03932a4.42158,4.42158,0,1,1-4.3809,4.49866A4.50091,4.50091,0,0,1,249.9455,277.03932Z"/></g><g id="change1_116"><path fill="#00aeef" d="M222.92961,218.52334a4.42167,4.42167,0,1,1-4.437-4.44258A4.50213,4.50213,0,0,1,222.92961,218.52334Z"/></g><g id="change1_117"><path fill="#00aeef" d="M271.01391,222.92363a4.42252,4.42252,0,1,1,4.47675-4.40281A4.50384,4.50384,0,0,1,271.01391,222.92363Z"/></g><g id="change1_118"><path fill="#00aeef" d="M328.0395,218.48385a4.40893,4.40893,0,1,1-4.3531-4.39083A4.49569,4.49569,0,0,1,328.0395,218.48385Z"/></g><g id="change1_119"><path fill="#00aeef" d="M338.41943,218.47154a4.39547,4.39547,0,1,1-4.35218-4.36495A4.48406,4.48406,0,0,1,338.41943,218.47154Z"/></g><g id="change1_120"><path fill="#00aeef" d="M107.4018,228.95378a4.40927,4.40927,0,1,1-4.27733-4.46639A4.50013,4.50013,0,0,1,107.4018,228.95378Z"/></g><g id="change1_121"><path fill="#00aeef" d="M191.4401,260.43688a4.40931,4.40931,0,1,1-4.27348-4.47A4.5,4.5,0,0,1,191.4401,260.43688Z"/></g><g id="change1_122"><path fill="#00aeef" d="M113.36844,224.50067a4.39567,4.39567,0,1,1-4.37748,4.33963A4.48372,4.48372,0,0,1,113.36844,224.50067Z"/></g><g id="change1_123"><path fill="#00aeef" d="M165.89162,264.78475a4.40952,4.40952,0,1,1,4.46451-4.27923A4.50017,4.50017,0,0,1,165.89162,264.78475Z"/></g><g id="change1_124"><path fill="#00aeef" d="M124.07317,234.869a4.42171,4.42171,0,1,1-4.41759,4.462A4.50126,4.50126,0,0,1,124.07317,234.869Z"/></g><g id="change1_125"><path fill="#00aeef" d="M155.36031,243.68171a4.39556,4.39556,0,1,1,4.57988-4.12389A4.48009,4.48009,0,0,1,155.36031,243.68171Z"/></g><g id="change1_126"><path fill="#00aeef" d="M170.36854,239.51981a4.4214,4.4214,0,1,1-4.52569-4.35386A4.50272,4.50272,0,0,1,170.36854,239.51981Z"/></g><g id="change1_127"><path fill="#00aeef" d="M117.80746,270.81436a4.42205,4.42205,0,1,1-4.41347-4.46609A4.50336,4.50336,0,0,1,117.80746,270.81436Z"/></g><g id="change1_128"><path fill="#00aeef" d="M128.43927,281.43855a4.36261,4.36261,0,1,1-4.38477-4.34062A4.44163,4.44163,0,0,1,128.43927,281.43855Z"/></g><g id="change1_129"><path fill="#00aeef" d="M390.9477,249.95676a4.36265,4.36265,0,1,1-4.38731-4.33812A4.44161,4.44161,0,0,1,390.9477,249.95676Z"/></g><g id="change1_130"><path fill="#00aeef" d="M302.42777,275.42913a4.36428,4.36428,0,1,1,4.4816-4.24341A4.447,4.447,0,0,1,302.42777,275.42913Z"/></g><g id="change1_131"><path fill="#00aeef" d="M134.46259,243.65325a4.36285,4.36285,0,1,1,4.37011-4.35529A4.44157,4.44157,0,0,1,134.46259,243.65325Z"/></g><g id="change1_132"><path fill="#00aeef" d="M81.839,254.36074a4.37966,4.37966,0,1,1,4.449-4.27212A4.46733,4.46733,0,0,1,81.839,254.36074Z"/></g><g id="change1_133"><path fill="#00aeef" d="M176.30889,255.99631a4.37943,4.37943,0,1,1-4.34707,4.37421A4.46732,4.46732,0,0,1,176.30889,255.99631Z"/></g><g id="change1_134"><path fill="#00aeef" d="M96.97845,260.34853a4.37916,4.37916,0,1,1-4.369-4.35223A4.46705,4.46705,0,0,1,96.97845,260.34853Z"/></g><g id="change1_135"><path fill="#00aeef" d="M149.22614,239.21979a4.36314,4.36314,0,1,1-4.43322-4.29223A4.44385,4.44385,0,0,1,149.22614,239.21979Z"/></g><g id="change1_136"><path fill="#00aeef" d="M151.22194,271.05081a4.3325,4.3325,0,1,1,4.35327,4.34812A4.3834,4.3834,0,0,1,151.22194,271.05081Z"/></g><g id="change1_137"><path fill="#00aeef" d="M323.29549,275.37689a4.31105,4.31105,0,1,1,4.34815-4.309A4.33057,4.33057,0,0,1,323.29549,275.37689Z"/></g><g id="change1_138"><path fill="#00aeef" d="M302.55176,224.564a4.33268,4.33268,0,1,1-4.337,4.36441A4.38293,4.38293,0,0,1,302.55176,224.564Z"/></g><g id="change1_139"><path fill="#00aeef" d="M264.68912,281.52879a4.30963,4.30963,0,1,1-4.27887-4.37826A4.33957,4.33957,0,0,1,264.68912,281.52879Z"/></g><g id="change1_140"><path fill="#00aeef" d="M212.425,208.17773a4.30958,4.30958,0,1,1-4.27732-4.37986A4.3398,4.3398,0,0,1,212.425,208.17773Z"/></g><g id="change1_141"><path fill="#00aeef" d="M144.891,277.15053a4.31088,4.31088,0,1,1-4.33744,4.31972A4.32842,4.32842,0,0,1,144.891,277.15053Z"/></g><g id="change1_142"><path fill="#00aeef" d="M243.81583,291.91543a4.22482,4.22482,0,1,1-4.126-4.2844A4.12908,4.12908,0,0,1,243.81583,291.91543Z"/></g><g id="change1_143"><path fill="#00aeef" d="M201.66431,207.82455a4.24012,4.24012,0,1,1-4.18922-4.25338A4.1477,4.1477,0,0,1,201.66431,207.82455Z"/></g><g id="change1_144"><path fill="#00aeef" d="M228.97233,222.76023a4.25862,4.25862,0,1,1,4.18735-4.25441A4.17805,4.17805,0,0,1,228.97233,222.76023Z"/></g><g id="change1_145"><path fill="#00aeef" d="M233.14156,291.87024a4.24015,4.24015,0,1,1-4.18721-4.25534A4.14747,4.14747,0,0,1,233.14156,291.87024Z"/></g><g id="change1_146"><path fill="#00aeef" d="M92.57789,224.67249a4.224,4.224,0,1,1-4.202,4.20845A4.12891,4.12891,0,0,1,92.57789,224.67249Z"/></g><g id="change1_147"><path fill="#00aeef" d="M312.99041,275.29054a4.224,4.224,0,1,1,4.17336-4.23721A4.12989,4.12989,0,0,1,312.99041,275.29054Z"/></g><g id="change1_148"><path fill="#00aeef" d="M317.198,228.87811a4.25782,4.25782,0,1,1-4.202-4.23995A4.17807,4.17807,0,0,1,317.198,228.87811Z"/></g><g id="change1_149"><path fill="#00aeef" d="M380.11855,239.62254a4.22445,4.22445,0,1,1-4.15172-4.259A4.13048,4.13048,0,0,1,380.11855,239.62254Z"/></g><g id="change1_150"><path fill="#00aeef" d="M338.23409,271.08673a4.2101,4.2101,0,1,1-4.19-4.23037A4.1323,4.1323,0,0,1,338.23409,271.08673Z"/></g><g id="change1_151"><path fill="#00aeef" d="M107.19011,218.61073a4.19883,4.19883,0,1,1-4.12577-4.306A4.13393,4.13393,0,0,1,107.19011,218.61073Z"/></g><g id="change1_152"><path fill="#00aeef" d="M291.85887,214.29188a4.21034,4.21034,0,1,1-4.21253,4.20785A4.13251,4.13251,0,0,1,291.85887,214.29188Z"/></g><g id="change1_153"><path fill="#00aeef" d="M201.6218,271.075a4.19757,4.19757,0,1,1-4.22594-4.20576A4.12782,4.12782,0,0,1,201.6218,271.075Z"/></g><g id="change1_154"><path fill="#00aeef" d="M239.55254,222.69976a4.19837,4.19837,0,1,1,4.2369-4.19491A4.12828,4.12828,0,0,1,239.55254,222.69976Z"/></g><g id="change1_155"><path fill="#00aeef" d="M396.9779,264.88294a4.21035,4.21035,0,1,1,4.21069-4.20986A4.13251,4.13251,0,0,1,396.9779,264.88294Z"/></g><g id="change1_156"><path fill="#00aeef" d="M365.54853,296.36215a4.21058,4.21058,0,1,1,4.16277-4.25754A4.13266,4.13266,0,0,1,365.54853,296.36215Z"/></g><g id="change1_157"><path fill="#00aeef" d="M124.04573,233.09373a4.19816,4.19816,0,1,1,4.22815-4.20355A4.12774,4.12774,0,0,1,124.04573,233.09373Z"/></g><g id="change1_158"><path fill="#00aeef" d="M401.18859,249.984a4.21,4.21,0,1,1-4.20758-4.21285A4.13248,4.13248,0,0,1,401.18859,249.984Z"/></g><g id="change1_159"><path fill="#00aeef" d="M411.55774,260.68631a4.18623,4.18623,0,1,1-4.20889-4.19976A4.13079,4.13079,0,0,1,411.55774,260.68631Z"/></g><g id="change1_160"><path fill="#00aeef" d="M407.34291,245.79545a4.1862,4.1862,0,1,1-4.15665,4.252A4.13041,4.13041,0,0,1,407.34291,245.79545Z"/></g><g id="change1_161"><path fill="#00aeef" d="M182.84546,218.51992a4.18595,4.18595,0,1,1,4.24038,4.16831A4.13056,4.13056,0,0,1,182.84546,218.51992Z"/></g><g id="change1_162"><path fill="#00aeef" d="M222.6942,208.09794a4.186,4.186,0,1,1-4.23282-4.17584A4.13046,4.13046,0,0,1,222.6942,208.09794Z"/></g><g id="change1_163"><path fill="#00aeef" d="M109.21091,218.442a4.17585,4.17585,0,1,1,4.04118,4.23577A4.148,4.148,0,0,1,109.21091,218.442Z"/></g><g id="change1_164"><path fill="#00aeef" d="M380.07015,281.53546a4.17607,4.17607,0,1,1-4.02676-4.24968A4.14871,4.14871,0,0,1,380.07015,281.53546Z"/></g><g id="change1_165"><path fill="#00aeef" d="M386.53564,275.24233a4.176,4.176,0,1,1,4.2249-4.05221A4.14641,4.14641,0,0,1,386.53564,275.24233Z"/></g><g id="change1_166"><path fill="#00aeef" d="M180.7936,228.82641a4.15611,4.15611,0,1,1-4.18873-4.08618A4.1696,4.1696,0,0,1,180.7936,228.82641Z"/></g><g id="change1_167"><path fill="#00aeef" d="M390.73343,239.63447a4.1486,4.1486,0,1,1-4.10123-4.1957A4.17945,4.17945,0,0,1,390.73343,239.63447Z"/></g><g id="change1_168"><path fill="#00aeef" d="M275.21789,208.1103a4.14835,4.14835,0,1,1-4.14621-4.1508A4.17731,4.17731,0,0,1,275.21789,208.1103Z"/></g><g id="change1_169"><path fill="#00aeef" d="M260.3651,222.65829a4.15655,4.15655,0,1,1,4.1699-4.10518A4.16539,4.16539,0,0,1,260.3651,222.65829Z"/></g><g id="change1_170"><path fill="#00aeef" d="M134.51167,287.70624a4.14882,4.14882,0,1,1-4.18987,4.10708A4.17936,4.17936,0,0,1,134.51167,287.70624Z"/></g><g id="change1_171"><path fill="#00aeef" d="M249.92705,296.00339a4.149,4.149,0,1,1,4.207-4.0899A4.18,4.18,0,0,1,249.92705,296.00339Z"/></g><g id="change1_172"><path fill="#00aeef" d="M249.91324,222.62972a4.12864,4.12864,0,1,1,4.19973-4.09195A4.18713,4.18713,0,0,1,249.91324,222.62972Z"/></g><g id="change1_173"><path fill="#00aeef" d="M134.43475,233.0352a4.1397,4.1397,0,1,1,4.174-4.14058A4.18527,4.18527,0,0,1,134.43475,233.0352Z"/></g><g id="change1_174"><path fill="#00aeef" d="M348.51855,218.51109a4.10152,4.10152,0,1,1-4.05511-4.11024A4.18147,4.18147,0,0,1,348.51855,218.51109Z"/></g><g id="change1_175"><path fill="#00aeef" d="M165.97484,275.1942a4.12771,4.12771,0,1,1,4.09982-4.192A4.18189,4.18189,0,0,1,165.97484,275.1942Z"/></g><g id="change1_176"><path fill="#00aeef" d="M359.23511,228.94235a4.12827,4.12827,0,1,1-4.11811-4.17356A4.18564,4.18564,0,0,1,359.23511,228.94235Z"/></g><g id="change1_177"><path fill="#00aeef" d="M422.18962,260.6903a4.12778,4.12778,0,1,1-4.14646-4.14528A4.18129,4.18129,0,0,1,422.18962,260.6903Z"/></g><g id="change1_178"><path fill="#00aeef" d="M96.70053,218.53041a4.10176,4.10176,0,1,1-4.03573-4.12949A4.18146,4.18146,0,0,1,96.70053,218.53041Z"/></g><g id="change1_179"><path fill="#00aeef" d="M81.86248,264.47692a4.10237,4.10237,0,1,1,4.14766-4.01767A4.17928,4.17928,0,0,1,81.86248,264.47692Z"/></g><g id="change1_180"><path fill="#00aeef" d="M422.17776,250.00765a4.11551,4.11551,0,1,1-4.01516-4.14181A4.19041,4.19041,0,0,1,422.17776,250.00765Z"/></g><g id="change1_181"><path fill="#00aeef" d="M285.60159,208.17742a4.13979,4.13979,0,1,1-4.10632-4.20819A4.18759,4.18759,0,0,1,285.60159,208.17742Z"/></g><g id="change1_182"><path fill="#00aeef" d="M327.76923,208.17586a4.1398,4.1398,0,1,1-4.108-4.20672A4.18753,4.18753,0,0,1,327.76923,208.17586Z"/></g><g id="change1_183"><path fill="#00aeef" d="M103.053,266.6308a4.14006,4.14006,0,1,1-4.19879,4.1158A4.1875,4.1875,0,0,1,103.053,266.6308Z"/></g><g id="change1_184"><path fill="#00aeef" d="M401.07963,239.57563a4.10133,4.10133,0,1,1-4.07574-4.08935A4.17912,4.17912,0,0,1,401.07963,239.57563Z"/></g><g id="change1_185"><path fill="#00aeef" d="M165.91119,224.75743a4.13906,4.13906,0,1,1-4.10245,4.21218A4.1844,4.1844,0,0,1,165.91119,224.75743Z"/></g><g id="change1_186"><path fill="#00aeef" d="M155.5,224.75743a4.13908,4.13908,0,1,1-4.08471,4.22989A4.18449,4.18449,0,0,1,155.5,224.75743Z"/></g><g id="change1_187"><path fill="#00aeef" d="M149.00222,228.84238a4.13883,4.13883,0,1,1-4.22964-4.08495A4.18456,4.18456,0,0,1,149.00222,228.84238Z"/></g><g id="change1_188"><path fill="#00aeef" d="M148.96465,291.796a4.10129,4.10129,0,1,1-4.12279-4.04252A4.18171,4.18171,0,0,1,148.96465,291.796Z"/></g><g id="change1_189"><path fill="#00aeef" d="M197.39532,201.5184a4.10205,4.10205,0,1,1,4.1304-4.035A4.18149,4.18149,0,0,1,197.39532,201.5184Z"/></g><g id="change1_190"><path fill="#00aeef" d="M401.06266,271.00268a4.08439,4.08439,0,1,1-4.11115-4.02039A4.18168,4.18168,0,0,1,401.06266,271.00268Z"/></g><g id="change1_191"><path fill="#00aeef" d="M334.02,212.19248a4.08473,4.08473,0,1,1,4.08821-4.04348A4.18027,4.18027,0,0,1,334.02,212.19248Z"/></g><g id="change1_192"><path fill="#00aeef" d="M191.11533,207.74679a4.08437,4.08437,0,1,1-4.11154-4.02A4.18179,4.18179,0,0,1,191.11533,207.74679Z"/></g><g id="change1_193"><path fill="#00aeef" d="M85.97526,239.32236A4.0667,4.0667,0,1,1,81.941,235.2232,4.16108,4.16108,0,0,1,85.97526,239.32236Z"/></g><g id="change1_194"><path fill="#00aeef" d="M128.14366,218.45814a4.06719,4.06719,0,1,1-4.111-4.02314A4.16294,4.16294,0,0,1,128.14366,218.45814Z"/></g><g id="change1_195"><path fill="#00aeef" d="M212.182,197.46152a4.0672,4.0672,0,1,1-4.02247-4.11171A4.16286,4.16286,0,0,1,212.182,197.46152Z"/></g><g id="change1_196"><path fill="#00aeef" d="M239.64115,298.47871a4.06749,4.06749,0,1,1-4.11581,4.01834A4.16345,4.16345,0,0,1,239.64115,298.47871Z"/></g><g id="change1_197"><path fill="#00aeef" d="M187.07569,266.99944a4.06744,4.06744,0,1,1-4.11144,4.02273A4.16287,4.16287,0,0,1,187.07569,266.99944Z"/></g><g id="change1_198"><path fill="#00aeef" d="M232.96885,208.16145a4.0673,4.0673,0,1,1-4.01363-4.12053A4.16411,4.16411,0,0,1,232.96885,208.16145Z"/></g><g id="change1_199"><path fill="#00aeef" d="M208.07737,277.42459a4.03632,4.03632,0,1,1-3.99824,4.11082A4.08373,4.08373,0,0,1,208.07737,277.42459Z"/></g><g id="change1_200"><path fill="#00aeef" d="M354.744,288.1157a4.0364,4.0364,0,1,1-3.96906,4.14A4.08772,4.08772,0,0,1,354.744,288.1157Z"/></g><g id="change1_201"><path fill="#00aeef" d="M407.41871,275.07762A4.01138,4.01138,0,1,1,411.383,271.094,4.025,4.025,0,0,1,407.41871,275.07762Z"/></g><g id="change1_202"><path fill="#00aeef" d="M271.00536,277.50268a3.95837,3.95837,0,1,1-3.89364,3.98524A3.88549,3.88549,0,0,1,271.00536,277.50268Z"/></g><g id="change1_203"><path fill="#00aeef" d="M176.23794,274.989a3.92372,3.92372,0,1,1,4.025-3.81958A3.84377,3.84377,0,0,1,176.23794,274.989Z"/></g><g id="change1_204"><path fill="#00aeef" d="M222.44731,291.90016a3.93911,3.93911,0,1,1-3.89353-3.98439A3.85786,3.85786,0,0,1,222.44731,291.90016Z"/></g><g id="change1_205"><path fill="#00aeef" d="M106.915,207.89161a3.92295,3.92295,0,1,1-3.84169-4.00289A3.84316,3.84316,0,0,1,106.915,207.89161Z"/></g><g id="change1_206"><path fill="#00aeef" d="M312.92174,222.39751a3.89535,3.89535,0,1,1,3.91354-3.80266A3.83143,3.83143,0,0,1,312.92174,222.39751Z"/></g><g id="change1_207"><path fill="#00aeef" d="M390.48015,229.17447a3.89508,3.89508,0,1,1-3.83972-3.87647A3.82957,3.82957,0,0,1,390.48015,229.17447Z"/></g><g id="change1_208"><path fill="#00aeef" d="M344.34646,285.36847a3.90907,3.90907,0,1,1,3.97845-3.87372A3.83452,3.83452,0,0,1,344.34646,285.36847Z"/></g><g id="change1_209"><path fill="#00aeef" d="M155.63,277.553a3.90907,3.90907,0,1,1-3.98351,3.86871A3.83525,3.83525,0,0,1,155.63,277.553Z"/></g><g id="change1_210"><path fill="#00aeef" d="M375.8786,232.76926a3.8735,3.8735,0,1,1,3.88887-3.81979A3.8418,3.8418,0,0,1,375.8786,232.76926Z"/></g><g id="change1_211"><path fill="#00aeef" d="M134.42284,222.35648a3.85456,3.85456,0,1,1,3.90134-3.80707A3.86391,3.86391,0,0,1,134.42284,222.35648Z"/></g><g id="change1_212"><path fill="#00aeef" d="M187.05351,193.56277a3.85433,3.85433,0,1,1-3.87633,3.832A3.86271,3.86271,0,0,1,187.05351,193.56277Z"/></g><g id="change1_213"><path fill="#00aeef" d="M411.226,239.57661a3.854,3.854,0,1,1-3.86473-3.8435A3.86318,3.86318,0,0,1,411.226,239.57661Z"/></g><g id="change1_214"><path fill="#00aeef" d="M176.699,222.36508a3.86337,3.86337,0,1,1,3.80144-3.92408A3.84731,3.84731,0,0,1,176.699,222.36508Z"/></g><g id="change1_215"><path fill="#00aeef" d="M249.93843,306.40882a3.86318,3.86318,0,1,1,3.90992-3.81564A3.84585,3.84585,0,0,1,249.93843,306.40882Z"/></g><g id="change1_216"><path fill="#00aeef" d="M225.03925,302.527a3.8627,3.8627,0,1,1,3.84376,3.88177A3.84551,3.84551,0,0,1,225.03925,302.527Z"/></g><g id="change1_217"><path fill="#00aeef" d="M117.26968,207.80108a3.88336,3.88336,0,1,1-3.81956-3.87354A3.83847,3.83847,0,0,1,117.26968,207.80108Z"/></g><g id="change1_218"><path fill="#00aeef" d="M218.54236,193.57328a3.8446,3.8446,0,1,1-3.8774,3.84686A3.88213,3.88213,0,0,1,218.54236,193.57328Z"/></g><g id="change1_219"><path fill="#00aeef" d="M271.0574,193.59784a3.81946,3.81946,0,1,1-3.80668,3.79424A3.90213,3.90213,0,0,1,271.0574,193.59784Z"/></g><g id="change1_220"><path fill="#00aeef" d="M369.32024,302.47922a3.81924,3.81924,0,1,1-3.84852-3.75249A3.90639,3.90639,0,0,1,369.32024,302.47922Z"/></g><g id="change1_221"><path fill="#00aeef" d="M306.37846,218.493a3.83169,3.83169,0,1,1-3.76682-3.82269A3.89776,3.89776,0,0,1,306.37846,218.493Z"/></g><g id="change1_222"><path fill="#00aeef" d="M323.64562,201.23623a3.81944,3.81944,0,1,1,3.804-3.79717A3.90134,3.90134,0,0,1,323.64562,201.23623Z"/></g><g id="change1_223"><path fill="#00aeef" d="M428.40621,264.50447a3.83224,3.83224,0,1,1,3.8813-3.70826A3.90077,3.90077,0,0,1,428.40621,264.50447Z"/></g><g id="change1_224"><path fill="#00aeef" d="M243.41125,208.18185a3.82,3.82,0,1,1-3.70822-3.89293A3.9025,3.9025,0,0,1,243.41125,208.18185Z"/></g><g id="change1_225"><path fill="#00aeef" d="M96.41839,207.79613a3.81918,3.81918,0,1,1-3.7969-3.80426A3.90089,3.90089,0,0,1,96.41839,207.79613Z"/></g><g id="change1_226"><path fill="#00aeef" d="M96.43113,270.82246a3.832,3.832,0,1,1-3.70482-3.88468A3.90088,3.90088,0,0,1,96.43113,270.82246Z"/></g><g id="change1_227"><path fill="#00aeef" d="M421.89408,271.04323a3.83178,3.83178,0,1,1-3.78114-3.8085A3.8952,3.8952,0,0,1,421.89408,271.04323Z"/></g><g id="change1_228"><path fill="#00aeef" d="M117.20525,281.46305a3.81931,3.81931,0,1,1-3.77955-3.82151A3.90165,3.90165,0,0,1,117.20525,281.46305Z"/></g><g id="change1_229"><path fill="#00aeef" d="M127.90839,291.8014a3.83206,3.83206,0,1,1-3.811-3.77849A3.89566,3.89566,0,0,1,127.90839,291.8014Z"/></g><g id="change1_230"><path fill="#00aeef" d="M71.53434,253.80067a3.81942,3.81942,0,1,1,3.80024-3.80094A3.9017,3.9017,0,0,1,71.53434,253.80067Z"/></g><g id="change1_231"><path fill="#00aeef" d="M312.96714,285.24563a3.785,3.785,0,1,1,3.7577-3.81174A3.88005,3.88005,0,0,1,312.96714,285.24563Z"/></g><g id="change1_232"><path fill="#00aeef" d="M260.332,288.05226a3.80288,3.80288,0,1,1-3.75522,3.84973A3.9038,3.9038,0,0,1,260.332,288.05226Z"/></g><g id="change1_233"><path fill="#00aeef" d="M400.74316,229.23684a3.76554,3.76554,0,1,1-3.758-3.80834A3.851,3.851,0,0,1,400.74316,229.23684Z"/></g><g id="change1_234"><path fill="#00aeef" d="M260.33244,204.32323a3.78517,3.78517,0,1,1-3.73793,3.83161A3.881,3.881,0,0,1,260.33244,204.32323Z"/></g><g id="change1_235"><path fill="#00aeef" d="M432.24046,250.00506a3.78475,3.78475,0,1,1-3.7611-3.80846A3.88042,3.88042,0,0,1,432.24046,250.00506Z"/></g><g id="change1_236"><path fill="#00aeef" d="M197.38124,190.82556a3.80286,3.80286,0,1,1,3.84575-3.75925A3.90329,3.90329,0,0,1,197.38124,190.82556Z"/></g><g id="change1_237"><path fill="#00aeef" d="M379.6269,292.16538a3.73217,3.73217,0,1,1-3.64463-3.746A3.77461,3.77461,0,0,1,379.6269,292.16538Z"/></g><g id="change1_238"><path fill="#00aeef" d="M281.52362,277.72836a3.73282,3.73282,0,1,1-3.78992,3.59793A3.77193,3.77193,0,0,1,281.52362,277.72836Z"/></g><g id="change1_239"><path fill="#00aeef" d="M127.709,207.76491a3.63263,3.63263,0,1,1-3.67854-3.58633A3.53124,3.53124,0,0,1,127.709,207.76491Z"/></g><g id="change1_240"><path fill="#00aeef" d="M407.32681,285.11349a3.653,3.653,0,1,1,3.69773-3.60764A3.56722,3.56722,0,0,1,407.32681,285.11349Z"/></g><g id="change1_241"><path fill="#00aeef" d="M369.17449,228.8316a3.6735,3.6735,0,1,1-3.70089-3.60868A3.60154,3.60154,0,0,1,369.17449,228.8316Z"/></g><g id="change1_242"><path fill="#00aeef" d="M295.50891,281.493a3.65265,3.65265,0,1,1-3.62023-3.685A3.56553,3.56553,0,0,1,295.50891,281.493Z"/></g><g id="change1_243"><path fill="#00aeef" d="M302.52218,277.78736a3.67361,3.67361,0,1,1-3.64854,3.661A3.59756,3.59756,0,0,1,302.52218,277.78736Z"/></g><g id="change1_244"><path fill="#00aeef" d="M323.35488,277.82818a3.63262,3.63262,0,1,1-3.65358,3.61134A3.53406,3.53406,0,0,1,323.35488,277.82818Z"/></g><g id="change1_245"><path fill="#00aeef" d="M144.86544,214.84946a3.65277,3.65277,0,1,1-3.65437,3.65086A3.56318,3.56318,0,0,1,144.86544,214.84946Z"/></g><g id="change1_246"><path fill="#00aeef" d="M169.52425,218.54573a3.57795,3.57795,0,1,1-3.49645-3.62063A3.53647,3.53647,0,0,1,169.52425,218.54573Z"/></g><g id="change1_247"><path fill="#00aeef" d="M106.56975,197.41319A3.5772,3.5772,0,1,1,103.026,193.84,3.53669,3.53669,0,0,1,106.56975,197.41319Z"/></g><g id="change1_248"><path fill="#00aeef" d="M250.01972,309.35139a3.58954,3.58954,0,1,1-3.62242,3.51756A3.5309,3.5309,0,0,1,250.01972,309.35139Z"/></g><g id="change1_249"><path fill="#00aeef" d="M239.57063,309.363a3.57732,3.57732,0,1,1-3.55518,3.56181A3.53725,3.53725,0,0,1,239.57063,309.363Z"/></g><g id="change1_250"><path fill="#00aeef" d="M85.525,228.88413a3.61619,3.61619,0,1,1-3.665-3.604A3.53517,3.53517,0,0,1,85.525,228.88413Z"/></g><g id="change1_251"><path fill="#00aeef" d="M148.47949,302.485a3.61617,3.61617,0,1,1-3.71379-3.55538A3.53607,3.53607,0,0,1,148.47949,302.485Z"/></g><g id="change1_252"><path fill="#00aeef" d="M390.17352,281.44155a3.58866,3.58866,0,1,1-3.57053-3.5695A3.52875,3.52875,0,0,1,390.17352,281.44155Z"/></g><g id="change1_253"><path fill="#00aeef" d="M190.64713,187.01077a3.61619,3.61619,0,1,1-3.665-3.604A3.53511,3.53511,0,0,1,190.64713,187.01077Z"/></g><g id="change1_254"><path fill="#00aeef" d="M75.08231,260.43208a3.56712,3.56712,0,1,1-3.51017-3.62338A3.568,3.568,0,0,1,75.08231,260.43208Z"/></g><g id="change1_255"><path fill="#00aeef" d="M211.6817,187.07637a3.56708,3.56708,0,1,1-3.51323-3.62031A3.56789,3.56789,0,0,1,211.6817,187.07637Z"/></g><g id="change1_256"><path fill="#00aeef" d="M155.484,222.05905a3.55827,3.55827,0,1,1,3.62659-3.52385A3.594,3.594,0,0,1,155.484,222.05905Z"/></g><g id="change1_257"><path fill="#00aeef" d="M400.52349,281.47724a3.545,3.545,0,1,1-3.45435-3.56167A3.59719,3.59719,0,0,1,400.52349,281.47724Z"/></g><g id="change1_258"><path fill="#00aeef" d="M333.97851,193.86023a3.557,3.557,0,1,1-3.511,3.63933A3.58892,3.58892,0,0,1,333.97851,193.86023Z"/></g><g id="change1_259"><path fill="#00aeef" d="M232.44686,197.49a3.5457,3.5457,0,1,1-3.398-3.61711A3.6003,3.6003,0,0,1,232.44686,197.49Z"/></g><g id="change1_260"><path fill="#00aeef" d="M138.00232,302.53454a3.53247,3.53247,0,1,1-3.50649-3.521A3.60594,3.60594,0,0,1,138.00232,302.53454Z"/></g><g id="change1_261"><path fill="#00aeef" d="M96.11757,197.53777a3.51919,3.51919,0,1,1-3.36055-3.63654A3.6114,3.6114,0,0,1,96.11757,197.53777Z"/></g><g id="change1_262"><path fill="#00aeef" d="M176.70408,211.34354a3.53272,3.53272,0,1,1,3.46588-3.56161A3.609,3.609,0,0,1,176.70408,211.34354Z"/></g><g id="change1_263"><path fill="#00aeef" d="M155.53272,288.32244a3.53262,3.53262,0,1,1-3.51093,3.51657A3.60678,3.60678,0,0,1,155.53272,288.32244Z"/></g><g id="change1_264"><path fill="#00aeef" d="M375.963,222.03443a3.53264,3.53264,0,1,1,3.46389-3.56351A3.60875,3.60875,0,0,1,375.963,222.03443Z"/></g><g id="change1_265"><path fill="#00aeef" d="M316.45839,208.06031a3.51838,3.51838,0,1,1-3.529-3.47056A3.611,3.611,0,0,1,316.45839,208.06031Z"/></g><g id="change1_266"><path fill="#00aeef" d="M281.44713,200.94944a3.533,3.533,0,1,1,3.548-3.47946A3.60611,3.60611,0,0,1,281.44713,200.94944Z"/></g><g id="change1_267"><path fill="#00aeef" d="M390.1173,218.52789a3.53293,3.53293,0,1,1-3.4694-3.55807A3.60681,3.60681,0,0,1,390.1173,218.52789Z"/></g><g id="change1_268"><path fill="#00aeef" d="M295.37457,208.15168a3.51928,3.51928,0,1,1-3.43764-3.5618A3.61056,3.61056,0,0,1,295.37457,208.15168Z"/></g><g id="change1_269"><path fill="#00aeef" d="M421.59455,281.47663a3.53277,3.53277,0,1,1-3.47922-3.54823A3.606,3.606,0,0,1,421.59455,281.47663Z"/></g><g id="change1_270"><path fill="#00aeef" d="M249.96448,204.5757a3.5326,3.5326,0,1,1-3.51094,3.51657A3.60675,3.60675,0,0,1,249.96448,204.5757Z"/></g><g id="change1_271"><path fill="#00aeef" d="M418.10529,236.055a3.5335,3.5335,0,1,1-3.575,3.45233A3.60574,3.60574,0,0,1,418.10529,236.055Z"/></g><g id="change1_272"><path fill="#00aeef" d="M263.82506,197.47625a3.44642,3.44642,0,1,1-3.31282-3.50291A3.48409,3.48409,0,0,1,263.82506,197.47625Z"/></g><g id="change1_273"><path fill="#00aeef" d="M187.02621,172.91383a3.41839,3.41839,0,1,1-3.41281,3.386A3.43036,3.43036,0,0,1,187.02621,172.91383Z"/></g><g id="change1_274"><path fill="#00aeef" d="M333.9883,284.8788a3.419,3.419,0,1,1,3.45352-3.34529A3.43,3.43,0,0,1,333.9883,284.8788Z"/></g><g id="change1_275"><path fill="#00aeef" d="M113.37986,200.86313a3.44612,3.44612,0,1,1,3.45237-3.36571A3.48557,3.48557,0,0,1,113.37986,200.86313Z"/></g><g id="change1_276"><path fill="#00aeef" d="M316.27988,197.44185a3.34048,3.34048,0,1,1-3.35184-3.36469A3.25909,3.25909,0,0,1,316.27988,197.44185Z"/></g><g id="change1_277"><path fill="#00aeef" d="M410.64973,229.13468a3.27827,3.27827,0,1,1-3.33633-3.21937A3.25241,3.25241,0,0,1,410.64973,229.13468Z"/></g><g id="change1_278"><path fill="#00aeef" d="M197.47266,173.04114a3.292,3.292,0,1,1-3.33854,3.20584A3.24368,3.24368,0,0,1,197.47266,173.04114Z"/></g><g id="change1_279"><path fill="#00aeef" d="M347.72234,208.1504a3.306,3.306,0,1,1-3.22548-3.34734A3.23934,3.23934,0,0,1,347.72234,208.1504Z"/></g><g id="change1_280"><path fill="#00aeef" d="M323.57564,190.31365a3.29222,3.29222,0,1,1,3.34555-3.19889A3.24216,3.24216,0,0,1,323.57564,190.31365Z"/></g><g id="change1_281"><path fill="#00aeef" d="M81.91256,221.793a3.29111,3.29111,0,1,1,3.287-3.25747A3.24569,3.24569,0,0,1,81.91256,221.793Z"/></g><g id="change1_282"><path fill="#00aeef" d="M197.47764,284.76578a3.3053,3.3053,0,1,1,3.25183-3.32091A3.24134,3.24134,0,0,1,197.47764,284.76578Z"/></g><g id="change1_283"><path fill="#00aeef" d="M81.92716,267.479a3.29141,3.29141,0,1,1-3.3086,3.23574A3.24581,3.24581,0,0,1,81.92716,267.479Z"/></g><g id="change1_284"><path fill="#00aeef" d="M375.87291,299.25521a3.291,3.291,0,1,1-3.26869,3.27567A3.24183,3.24183,0,0,1,375.87291,299.25521Z"/></g><g id="change1_285"><path fill="#00aeef" d="M134.48485,211.07633a3.26548,3.26548,0,1,1,3.25028-3.31691A3.25843,3.25843,0,0,1,134.48485,211.07633Z"/></g><g id="change1_286"><path fill="#00aeef" d="M425.19071,270.941a3.26768,3.26768,0,1,1,3.17639,3.39087A3.26654,3.26654,0,0,1,425.19071,270.941Z"/></g><g id="change1_287"><path fill="#00aeef" d="M260.43258,305.80155a3.25606,3.25606,0,1,1,3.202-3.23507A3.27768,3.27768,0,0,1,260.43258,305.80155Z"/></g><g id="change1_288"><path fill="#00aeef" d="M158.78123,302.61643a3.22846,3.22846,0,1,1-3.11994-3.298A3.308,3.308,0,0,1,158.78123,302.61643Z"/></g><g id="change1_289"><path fill="#00aeef" d="M165.88025,278.20514a3.2563,3.2563,0,1,1-3.18825,3.24869A3.27894,3.27894,0,0,1,165.88025,278.20514Z"/></g><g id="change1_290"><path fill="#00aeef" d="M354.76252,299.29673a3.24954,3.24954,0,1,1-3.20054,3.22373A3.28319,3.28319,0,0,1,354.76252,299.29673Z"/></g><g id="change1_291"><path fill="#00aeef" d="M253.213,323.3653a3.2282,3.2282,0,1,1-3.15938-3.25876A3.30539,3.30539,0,0,1,253.213,323.3653Z"/></g><g id="change1_292"><path fill="#00aeef" d="M95.807,186.96959a3.20792,3.20792,0,1,1-3.29807-3.15473A3.29752,3.29752,0,0,1,95.807,186.96959Z"/></g><g id="change1_293"><path fill="#00aeef" d="M218.52677,183.81486a3.20878,3.20878,0,1,1-3.2262,3.22689A3.298,3.298,0,0,1,218.52677,183.81486Z"/></g><g id="change1_294"><path fill="#00aeef" d="M263.56676,312.88722a3.18786,3.18786,0,1,1-3.27725-3.135A3.28139,3.28139,0,0,1,263.56676,312.88722Z"/></g><g id="change1_295"><path fill="#00aeef" d="M375.83321,211.29592a3.18839,3.18839,0,1,1,3.24915-3.16318A3.28579,3.28579,0,0,1,375.83321,211.29592Z"/></g><g id="change1_296"><path fill="#00aeef" d="M274.223,187.08375a3.15355,3.15355,0,1,1-3.05554-3.21444A3.21635,3.21635,0,0,1,274.223,187.08375Z"/></g><g id="change1_297"><path fill="#00aeef" d="M271.10932,288.73069a3.12441,3.12441,0,1,1-3.16278,3.08448A3.16179,3.16179,0,0,1,271.10932,288.73069Z"/></g><g id="change1_298"><path fill="#00aeef" d="M312.97553,183.89878a3.12435,3.12435,0,1,1-3.15924,3.08887A3.1614,3.1614,0,0,1,312.97553,183.89878Z"/></g><g id="change1_299"><path fill="#00aeef" d="M418.01622,295.276a3.1245,3.1245,0,1,1,3.17-3.07795A3.16218,3.16218,0,0,1,418.01622,295.276Z"/></g><g id="change1_300"><path fill="#00aeef" d="M106.05728,186.98241a3.0646,3.0646,0,1,1-3.14186-3.02409A2.99378,2.99378,0,0,1,106.05728,186.98241Z"/></g><g id="change1_301"><path fill="#00aeef" d="M71.58917,242.33066a3.04114,3.04114,0,1,1,2.9665-3.03962A2.95724,2.95724,0,0,1,71.58917,242.33066Z"/></g><g id="change1_302"><path fill="#00aeef" d="M431.52022,239.60484a3.06513,3.06513,0,1,1-3.084-3.08205A2.9949,2.9949,0,0,1,431.52022,239.60484Z"/></g><g id="change1_303"><path fill="#00aeef" d="M179.64045,187.08217a3.00436,3.00436,0,1,1-2.90652-3.06207A2.93077,2.93077,0,0,1,179.64045,187.08217Z"/></g><g id="change1_304"><path fill="#00aeef" d="M179.70216,197.43647a3.06514,3.06514,0,1,1-3.08191-3.0841A2.99471,2.99471,0,0,1,179.70216,197.43647Z"/></g><g id="change1_305"><path fill="#00aeef" d="M218.55343,299.55753a2.98873,2.98873,0,1,1-3.03318,2.9434A2.93536,2.93536,0,0,1,218.55343,299.55753Z"/></g><g id="change1_306"><path fill="#00aeef" d="M103.04849,278.4402a3.02221,3.02221,0,1,1-3.076,2.92784A2.93571,2.93571,0,0,1,103.04849,278.4402Z"/></g><g id="change1_307"><path fill="#00aeef" d="M260.36114,184.00239a3.02084,3.02084,0,1,1-3.00234,3.00146A2.9357,2.9357,0,0,1,260.36114,184.00239Z"/></g><g id="change1_308"><path fill="#00aeef" d="M127.07939,197.3584a3.003,3.003,0,1,1-3.02444-2.94422A2.93451,2.93451,0,0,1,127.07939,197.3584Z"/></g><g id="change1_309"><path fill="#00aeef" d="M355.08568,221.52276a3.02138,3.02138,0,1,1,3.04252-2.96121A2.93845,2.93845,0,0,1,355.08568,221.52276Z"/></g><g id="change1_310"><path fill="#00aeef" d="M176.50727,179.34872a3.01929,3.01929,0,1,1,3.14471-2.84935A2.94623,2.94623,0,0,1,176.50727,179.34872Z"/></g><g id="change1_311"><path fill="#00aeef" d="M64.14259,249.92235a3.02068,3.02068,0,1,1-3.04237-2.96144A2.93916,2.93916,0,0,1,64.14259,249.92235Z"/></g><g id="change1_312"><path fill="#00aeef" d="M260.36251,320.61054a3.02085,3.02085,0,1,1-3.00377,3.00007A2.93568,2.93568,0,0,1,260.36251,320.61054Z"/></g><g id="change1_313"><path fill="#00aeef" d="M400.01864,218.44439a3.04062,3.04062,0,1,1-3.02371-2.98242A2.95549,2.95549,0,0,1,400.01864,218.44439Z"/></g><g id="change1_314"><path fill="#00aeef" d="M326.354,292.1294a3.02064,3.02064,0,1,1-3.00565-2.99814A2.93611,2.93611,0,0,1,326.354,292.1294Z"/></g><g id="change1_315"><path fill="#00aeef" d="M407.39007,289.13127a3.02132,3.02132,0,1,1-3.03843,2.96534A2.93844,2.93844,0,0,1,407.39007,289.13127Z"/></g><g id="change1_316"><path fill="#00aeef" d="M239.64429,194.41418a3.0044,3.0044,0,1,1-3.05469,2.914A2.93,2.93,0,0,1,239.64429,194.41418Z"/></g><g id="change1_317"><path fill="#00aeef" d="M190.01942,165.89947a2.98845,2.98845,0,1,1-3.0265-2.9501A2.935,2.935,0,0,1,190.01942,165.89947Z"/></g><g id="change1_318"><path fill="#00aeef" d="M84.89728,207.86287a2.98866,2.98866,0,1,1-2.93646-3.04017A2.93548,2.93548,0,0,1,84.89728,207.86287Z"/></g><g id="change1_319"><path fill="#00aeef" d="M347.38181,292.221a2.96514,2.96514,0,1,1-2.82129-3.03258A2.98936,2.98936,0,0,1,347.38181,292.221Z"/></g><g id="change1_320"><path fill="#00aeef" d="M389.54945,208.11206a2.96434,2.96434,0,1,1-2.88651-2.96849A2.98529,2.98529,0,0,1,389.54945,208.11206Z"/></g><g id="change1_321"><path fill="#00aeef" d="M441.82455,249.93377a2.97557,2.97557,0,1,1-3.05992-2.9278A2.96159,2.96159,0,0,1,441.82455,249.93377Z"/></g><g id="change1_322"><path fill="#00aeef" d="M211.0904,291.9785a2.978,2.978,0,1,1-2.88862-3.09918A2.97,2.97,0,0,1,211.0904,291.9785Z"/></g><g id="change1_323"><path fill="#00aeef" d="M228.87033,309.9755a2.9647,2.9647,0,1,1-2.93276,2.92218A2.98369,2.98369,0,0,1,228.87033,309.9755Z"/></g><g id="change1_324"><path fill="#00aeef" d="M368.46563,313.0106a2.96519,2.96519,0,1,1-2.81988-3.03391A2.98946,2.98946,0,0,1,368.46563,313.0106Z"/></g><g id="change1_325"><path fill="#00aeef" d="M61.11727,257.44194a2.93364,2.93364,0,1,1-2.92845,2.93846A3.01353,3.01353,0,0,1,61.11727,257.44194Z"/></g><g id="change1_326"><path fill="#00aeef" d="M365.53461,215.55282a2.95045,2.95045,0,1,1-2.98253,2.87913A3.00871,3.00871,0,0,1,365.53461,215.55282Z"/></g><g id="change1_327"><path fill="#00aeef" d="M312.97339,289.21819a2.93382,2.93382,0,1,1-2.96656,2.90046A3.01293,3.01293,0,0,1,312.97339,289.21819Z"/></g><g id="change1_328"><path fill="#00aeef" d="M84.85825,197.3582a2.94951,2.94951,0,1,1-2.971-2.89055A3.01564,3.01564,0,0,1,84.85825,197.3582Z"/></g><g id="change1_329"><path fill="#00aeef" d="M144.818,310.00637a2.934,2.934,0,1,1-2.88782,2.97927A3.01374,3.01374,0,0,1,144.818,310.00637Z"/></g><g id="change1_330"><path fill="#00aeef" d="M441.78268,260.71475a2.93377,2.93377,0,1,1-2.89118-2.97583A3.0135,3.0135,0,0,1,441.78268,260.71475Z"/></g><g id="change1_331"><path fill="#00aeef" d="M84.82325,187.006a2.91448,2.91448,0,1,1-2.96806-2.89742A3.00238,3.00238,0,0,1,84.82325,187.006Z"/></g><g id="change1_332"><path fill="#00aeef" d="M176.64023,168.82913a2.89136,2.89136,0,1,1,2.88871-2.81989A2.97684,2.97684,0,0,1,176.64023,168.82913Z"/></g><g id="change1_333"><path fill="#00aeef" d="M431.37,281.44168a2.91444,2.91444,0,1,1-2.97024-2.89528A3.00234,3.00234,0,0,1,431.37,281.44168Z"/></g><g id="change1_334"><path fill="#00aeef" d="M187.05367,278.55068a2.91093,2.91093,0,1,1-2.93234,2.92452A2.99832,2.99832,0,0,1,187.05367,278.55068Z"/></g><g id="change1_335"><path fill="#00aeef" d="M113.382,289.00028a2.855,2.855,0,1,1-2.85019,2.82192A2.911,2.911,0,0,1,113.382,289.00028Z"/></g><g id="change1_336"><path fill="#00aeef" d="M176.39862,284.31532a2.85488,2.85488,0,1,1,2.79659-2.8754A2.91839,2.91839,0,0,1,176.39862,284.31532Z"/></g><g id="change1_337"><path fill="#00aeef" d="M389.4395,292.121a2.85461,2.85461,0,1,1-2.84837-2.82376A2.91726,2.91726,0,0,1,389.4395,292.121Z"/></g><g id="change1_338"><path fill="#00aeef" d="M231.72176,187.06126a2.82012,2.82012,0,1,1-2.7816-2.8584A2.82769,2.82769,0,0,1,231.72176,187.06126Z"/></g><g id="change1_339"><path fill="#00aeef" d="M320.89657,176.61308a2.73481,2.73481,0,1,1,2.68119,2.75A2.64347,2.64347,0,0,1,320.89657,176.61308Z"/></g><g id="change1_340"><path fill="#00aeef" d="M145.172,205.05084a2.76032,2.76032,0,1,1-2.77155,2.67467A2.68141,2.68141,0,0,1,145.172,205.05084Z"/></g><g id="change1_341"><path fill="#00aeef" d="M208.12645,173.57158a2.76032,2.76032,0,1,1-2.77155,2.67468A2.68143,2.68143,0,0,1,208.12645,173.57158Z"/></g><g id="change1_342"><path fill="#00aeef" d="M249.92174,194.65674a2.761,2.761,0,1,1-2.69618,2.75011A2.68086,2.68086,0,0,1,249.92174,194.65674Z"/></g><g id="change1_343"><path fill="#00aeef" d="M74.24969,270.78983a2.7349,2.7349,0,1,1-2.67681-2.75435A2.64339,2.64339,0,0,1,74.24969,270.78983Z"/></g><g id="change1_344"><path fill="#00aeef" d="M92.5703,179.06608a2.7353,2.7353,0,1,1,2.7632-2.668A2.64359,2.64359,0,0,1,92.5703,179.06608Z"/></g><g id="change1_345"><path fill="#00aeef" d="M155.57136,315.70032a2.76035,2.76035,0,1,1,2.74276-2.70355A2.68053,2.68053,0,0,1,155.57136,315.70032Z"/></g><g id="change1_346"><path fill="#00aeef" d="M375.87631,315.67425a2.73505,2.73505,0,1,1,2.75242-2.67875A2.64336,2.64336,0,0,1,375.87631,315.67425Z"/></g><g id="change1_347"><path fill="#00aeef" d="M315.68668,176.73822a2.74862,2.74862,0,1,1-2.5634-2.85166A2.66847,2.66847,0,0,1,315.68668,176.73822Z"/></g><g id="change1_348"><path fill="#00aeef" d="M239.61072,320.57382a2.76036,2.76036,0,1,1-2.77859,2.66771A2.682,2.682,0,0,1,239.61072,320.57382Z"/></g><g id="change1_349"><path fill="#00aeef" d="M336.78415,187.044a2.76017,2.76017,0,1,1-2.66484-2.78147A2.68213,2.68213,0,0,1,336.78415,187.044Z"/></g><g id="change1_350"><path fill="#00aeef" d="M302.50953,210.823a2.7151,2.7151,0,1,1,2.75189-2.67756A2.65141,2.65141,0,0,1,302.50953,210.823Z"/></g><g id="change1_351"><path fill="#00aeef" d="M113.42633,184.30812a2.71512,2.71512,0,1,1-2.75465,2.67485A2.65187,2.65187,0,0,1,113.42633,184.30812Z"/></g><g id="change1_352"><path fill="#00aeef" d="M126.79136,302.60474a2.71528,2.71528,0,1,1-2.65588-2.77362A2.65315,2.65315,0,0,1,126.79136,302.60474Z"/></g><g id="change1_353"><path fill="#00aeef" d="M418.02242,231.9081a2.71511,2.71511,0,1,1,2.75459-2.67471A2.65185,2.65185,0,0,1,418.02242,231.9081Z"/></g><g id="change1_354"><path fill="#00aeef" d="M81.9424,173.66307a2.67,2.67,0,1,1-2.70194,2.59836A2.69019,2.69019,0,0,1,81.9424,173.66307Z"/></g><g id="change1_355"><path fill="#00aeef" d="M263.03228,176.60172a2.65338,2.65338,0,1,1-2.64347-2.62618A2.6958,2.6958,0,0,1,263.03228,176.60172Z"/></g><g id="change1_356"><path fill="#00aeef" d="M168.62859,207.75473a2.68183,2.68183,0,1,1-2.66335-2.625A2.67228,2.67228,0,0,1,168.62859,207.75473Z"/></g><g id="change1_357"><path fill="#00aeef" d="M336.7053,292.185a2.68147,2.68147,0,1,1-2.574-2.71455A2.67291,2.67291,0,0,1,336.7053,292.185Z"/></g><g id="change1_358"><path fill="#00aeef" d="M428.48915,289.483a2.67,2.67,0,1,1-2.702,2.59833A2.69018,2.69018,0,0,1,428.48915,289.483Z"/></g><g id="change1_359"><path fill="#00aeef" d="M260.39543,336.71833a2.69347,2.69347,0,1,1,2.67669-2.74632A2.6607,2.6607,0,0,1,260.39543,336.71833Z"/></g><g id="change1_360"><path fill="#00aeef" d="M399.61247,292.09435a2.63426,2.63426,0,1,1-2.7285-2.57658A2.69346,2.69346,0,0,1,399.61247,292.09435Z"/></g><g id="change1_361"><path fill="#00aeef" d="M378.52865,197.39025a2.63419,2.63419,0,1,1-2.69776-2.60727A2.6922,2.6922,0,0,1,378.52865,197.39025Z"/></g><g id="change1_362"><path fill="#00aeef" d="M197.4253,168.54985a2.61209,2.61209,0,1,1,2.61126-2.53866A2.70778,2.70778,0,0,1,197.4253,168.54985Z"/></g><g id="change1_363"><path fill="#00aeef" d="M368.11328,208.04228a2.61278,2.61278,0,1,1-2.60372-2.54625A2.708,2.708,0,0,1,368.11328,208.04228Z"/></g><g id="change1_364"><path fill="#00aeef" d="M284.04824,291.91093a2.586,2.586,0,1,1-2.4922-2.64152A2.68522,2.68522,0,0,1,284.04824,291.91093Z"/></g><g id="change1_365"><path fill="#00aeef" d="M176.52714,158.086a2.54486,2.54486,0,1,1,2.65307-2.43164A2.58537,2.58537,0,0,1,176.52714,158.086Z"/></g><g id="change1_366"><path fill="#00aeef" d="M249.87507,336.56749a2.54487,2.54487,0,1,1,2.65306-2.43162A2.58535,2.58535,0,0,1,249.87507,336.56749Z"/></g><g id="change1_367"><path fill="#00aeef" d="M418.0835,300.09962a2.44727,2.44727,0,1,1-2.46731,2.38815A2.37553,2.37553,0,0,1,418.0835,300.09962Z"/></g><g id="change1_368"><path fill="#00aeef" d="M386.62343,304.967a2.42145,2.42145,0,1,1,2.38271-2.45955A2.34562,2.34562,0,0,1,386.62343,304.967Z"/></g><g id="change1_369"><path fill="#00aeef" d="M92.5634,279.03961a2.4214,2.4214,0,1,1-2.38493,2.45721A2.34531,2.34531,0,0,1,92.5634,279.03961Z"/></g><g id="change1_370"><path fill="#00aeef" d="M283.884,187.14958a2.4243,2.4243,0,1,1-2.29439-2.54777A2.36006,2.36006,0,0,1,283.884,187.14958Z"/></g><g id="change1_371"><path fill="#00aeef" d="M438.795,237.11258a2.47538,2.47538,0,1,1-2.42041,2.45512A2.4156,2.4156,0,0,1,438.795,237.11258Z"/></g><g id="change1_372"><path fill="#00aeef" d="M189.40082,155.48391a2.37,2.37,0,1,1-2.3925-2.31A2.38154,2.38154,0,0,1,189.40082,155.48391Z"/></g><g id="change1_373"><path fill="#00aeef" d="M312.89067,163.53676a2.40135,2.40135,0,1,1-2.3513,2.48747A2.35245,2.35245,0,0,1,312.89067,163.53676Z"/></g><g id="change1_374"><path fill="#00aeef" d="M218.435,173.9478a2.3852,2.3852,0,1,1-2.31043,2.38374A2.357,2.357,0,0,1,218.435,173.9478Z"/></g><g id="change1_375"><path fill="#00aeef" d="M103.01549,178.73291a2.40135,2.40135,0,1,1,2.37826-2.46069A2.35076,2.35076,0,0,1,103.01549,178.73291Z"/></g><g id="change1_376"><path fill="#00aeef" d="M271.12315,179.0061a2.37762,2.37762,0,1,1,2.32354-2.39378A2.36964,2.36964,0,0,1,271.12315,179.0061Z"/></g><g id="change1_377"><path fill="#00aeef" d="M134.45815,199.801a2.38406,2.38406,0,1,1,2.39592-2.29818A2.35319,2.35319,0,0,1,134.45815,199.801Z"/></g><g id="change1_378"><path fill="#00aeef" d="M346.79866,197.377a2.38152,2.38152,0,1,1-2.34758-2.34123A2.36086,2.36086,0,0,1,346.79866,197.377Z"/></g><g id="change1_379"><path fill="#00aeef" d="M155.61629,205.41011a2.403,2.403,0,1,1-2.46316,2.37559A2.358,2.358,0,0,1,155.61629,205.41011Z"/></g><g id="change1_380"><path fill="#00aeef" d="M136.83976,312.95684a2.37051,2.37051,0,1,1-2.31591-2.38658A2.37759,2.37759,0,0,1,136.83976,312.95684Z"/></g><g id="change1_381"><path fill="#00aeef" d="M426.08618,302.55564a2.37007,2.37007,0,1,1,2.34243,2.36A2.37767,2.37767,0,0,1,426.08618,302.55564Z"/></g><g id="change1_382"><path fill="#00aeef" d="M304.91638,292.09855a2.37,2.37,0,1,1-2.386-2.3165A2.38161,2.38161,0,0,1,304.91638,292.09855Z"/></g><g id="change1_383"><path fill="#00aeef" d="M273.43915,333.96473a2.37006,2.37006,0,1,1-2.39317-2.30935A2.38183,2.38183,0,0,1,273.43915,333.96473Z"/></g><g id="change1_384"><path fill="#00aeef" d="M250.04464,189.37346a2.3509,2.3509,0,1,1,2.29142-2.44664A2.41019,2.41019,0,0,1,250.04464,189.37346Z"/></g><g id="change1_385"><path fill="#00aeef" d="M441.19946,271.01612a2.35183,2.35183,0,1,1-2.438-2.3A2.40953,2.40953,0,0,1,441.19946,271.01612Z"/></g><g id="change1_386"><path fill="#00aeef" d="M323.40762,300.21764a2.32946,2.32946,0,1,1-2.3982,2.18047A2.41368,2.41368,0,0,1,323.40762,300.21764Z"/></g><g id="change1_387"><path fill="#00aeef" d="M271.12846,325.98162a2.3509,2.3509,0,1,1,2.29142-2.44665A2.41022,2.41022,0,0,1,271.12846,325.98162Z"/></g><g id="change1_388"><path fill="#00aeef" d="M81.98266,163.60947a2.32945,2.32945,0,1,1-2.39794,2.18085A2.4148,2.4148,0,0,1,81.98266,163.60947Z"/></g><g id="change1_389"><path fill="#00aeef" d="M168.29777,291.81546a2.35066,2.35066,0,1,1-2.4269-2.31123A2.40858,2.40858,0,0,1,168.29777,291.81546Z"/></g><g id="change1_390"><path fill="#00aeef" d="M428.42368,226.8924a2.3012,2.3012,0,1,1-2.26863,2.29606A2.40131,2.40131,0,0,1,428.42368,226.8924Z"/></g><g id="change1_391"><path fill="#00aeef" d="M365.49644,199.71792a2.30156,2.30156,0,1,1,2.30557-2.25921A2.39906,2.39906,0,0,1,365.49644,199.71792Z"/></g><g id="change1_392"><path fill="#00aeef" d="M386.53005,199.66745a2.25091,2.25091,0,1,1,2.3051-2.23241A2.29723,2.29723,0,0,1,386.53005,199.66745Z"/></g><g id="change1_393"><path fill="#00aeef" d="M388.83515,312.92271a2.251,2.251,0,1,1-2.30434-2.23291A2.29212,2.29212,0,0,1,388.83515,312.92271Z"/></g><g id="change1_394"><path fill="#00aeef" d="M294.04041,291.90923a2.18456,2.18456,0,1,1-2.05594-2.23828A2.126,2.126,0,0,1,294.04041,291.90923Z"/></g><g id="change1_395"><path fill="#00aeef" d="M449.6682,247.79729a2.18779,2.18779,0,1,1-2.303,1.9825A2.12616,2.12616,0,0,1,449.6682,247.79729Z"/></g><g id="change1_396"><path fill="#00aeef" d="M273.1694,302.498a2.10041,2.10041,0,1,1-2.07376-2.05216A2.05739,2.05739,0,0,1,273.1694,302.498Z"/></g><g id="change1_397"><path fill="#00aeef" d="M334.02807,300.44593a2.1,2.1,0,1,1-2.10385,2.022A2.05674,2.05674,0,0,1,334.02807,300.44593Z"/></g><g id="change1_398"><path fill="#00aeef" d="M126.17657,187.00688a2.09993,2.09993,0,1,1-2.04211-2.08395A2.05721,2.05721,0,0,1,126.17657,187.00688Z"/></g><g id="change1_399"><path fill="#00aeef" d="M249.96044,178.752a2.12443,2.12443,0,1,1,2.1483-2.13493A2.05521,2.05521,0,0,1,249.96044,178.752Z"/></g><g id="change1_400"><path fill="#00aeef" d="M239.64092,184.89976a2.12528,2.12528,0,1,1-2.17167,2.11161A2.05758,2.05758,0,0,1,239.64092,184.89976Z"/></g><g id="change1_401"><path fill="#00aeef" d="M52.55485,249.98385a2.12379,2.12379,0,1,1-2.1577-2.12554A2.05538,2.05538,0,0,1,52.55485,249.98385Z"/></g><g id="change1_402"><path fill="#00aeef" d="M71.63893,226.773a2.12636,2.12636,0,1,1-2.24632,2.03706A2.066,2.066,0,0,1,71.63893,226.773Z"/></g><g id="change1_403"><path fill="#00aeef" d="M325.75379,166.06107a2.12622,2.12622,0,1,1-2.03692-2.24648A2.06622,2.06622,0,0,1,325.75379,166.06107Z"/></g><g id="change1_404"><path fill="#00aeef" d="M260.25585,168.06108a2.12636,2.12636,0,1,1,2.24634-2.037A2.06606,2.06606,0,0,1,260.25585,168.06108Z"/></g><g id="change1_405"><path fill="#00aeef" d="M168.07048,166.00953a2.12527,2.12527,0,1,1-2.08847-2.19494A2.06058,2.06058,0,0,1,168.07048,166.00953Z"/></g><g id="change1_406"><path fill="#00aeef" d="M354.85952,310.81685a2.12527,2.12527,0,1,1-2.17167,2.11162A2.05755,2.05755,0,0,1,354.85952,310.81685Z"/></g><g id="change1_407"><path fill="#00aeef" d="M449.541,241.68737a2.1,2.1,0,1,1,2.09855-2.02747A2.05682,2.05682,0,0,1,449.541,241.68737Z"/></g><g id="change1_408"><path fill="#00aeef" d="M409.495,218.516a2.124,2.124,0,1,1-2.14633-2.137A2.05512,2.05512,0,0,1,409.495,218.516Z"/></g><g id="change1_409"><path fill="#00aeef" d="M92.64362,168.06093a2.12348,2.12348,0,1,1,2.07882-2.20427A2.05526,2.05526,0,0,1,92.64362,168.06093Z"/></g><g id="change1_410"><path fill="#00aeef" d="M396.99751,210.20808a2.10008,2.10008,0,1,1,2.08082-2.04489A2.057,2.057,0,0,1,396.99751,210.20808Z"/></g><g id="change1_411"><path fill="#00aeef" d="M61.18455,268.6465a2.12536,2.12536,0,1,1-2.18536,2.09787A2.05934,2.05934,0,0,1,61.18455,268.6465Z"/></g><g id="change1_412"><path fill="#00aeef" d="M165.94976,300.42275a2.12394,2.12394,0,1,1-2.12539,2.15785A2.05535,2.05535,0,0,1,165.94976,300.42275Z"/></g><g id="change1_413"><path fill="#00aeef" d="M260.33815,346.54248a2.125,2.125,0,1,1,2.164-2.1192A2.05692,2.05692,0,0,1,260.33815,346.54248Z"/></g><g id="change1_414"><path fill="#00aeef" d="M302.57507,178.71021a2.08171,2.08171,0,1,1,2.05307-2.07287A2.09133,2.09133,0,0,1,302.57507,178.71021Z"/></g><g id="change1_415"><path fill="#00aeef" d="M292.2262,195.33566a2.08376,2.08376,0,1,1-2.1541,1.9717A2.09292,2.09292,0,0,1,292.2262,195.33566Z"/></g><g id="change1_416"><path fill="#00aeef" d="M63.20344,239.22526a2.08183,2.08183,0,1,1-2.10953-2.01623A2.09519,2.09519,0,0,1,63.20344,239.22526Z"/></g><g id="change1_417"><path fill="#00aeef" d="M155.59869,321.25492a2.07956,2.07956,0,1,1-2.12379,1.99774A2.10034,2.10034,0,0,1,155.59869,321.25492Z"/></g><g id="change1_418"><path fill="#00aeef" d="M168.02863,155.53528a2.08176,2.08176,0,1,1-2.05279-2.073A2.08817,2.08817,0,0,1,168.02863,155.53528Z"/></g><g id="change1_419"><path fill="#00aeef" d="M228.86969,174.32131a2.01091,2.01091,0,1,1-1.97822,2.00589A2.08878,2.08878,0,0,1,228.86969,174.32131Z"/></g><g id="change1_420"><path fill="#00aeef" d="M304.609,197.36873a2.06252,2.06252,0,1,1-2.14758-2.01411A2.1099,2.1099,0,0,1,304.609,197.36873Z"/></g><g id="change1_421"><path fill="#00aeef" d="M336.03447,176.64489a2.01148,2.01148,0,1,1-1.95747-2.0267A2.08234,2.08234,0,0,1,336.03447,176.64489Z"/></g><g id="change1_422"><path fill="#00aeef" d="M302.61789,167.94832a2.01119,2.01119,0,1,1,1.9392-2.045A2.09845,2.09845,0,0,1,302.61789,167.94832Z"/></g><g id="change1_423"><path fill="#00aeef" d="M79.915,281.24208a2.00493,2.00493,0,1,1,1.73883,2.20722A2.07164,2.07164,0,0,1,79.915,281.24208Z"/></g><g id="change1_424"><path fill="#00aeef" d="M302.564,189.08528a2.06274,2.06274,0,1,1,2.045-2.11654A2.10954,2.10954,0,0,1,302.564,189.08528Z"/></g><g id="change1_425"><path fill="#00aeef" d="M165.957,314.97947a2.03945,2.03945,0,1,1,2.02984-1.9749A2.1109,2.1109,0,0,1,165.957,314.97947Z"/></g><g id="change1_426"><path fill="#00aeef" d="M271.07465,315.00247a2.06295,2.06295,0,1,1,2.057-2.10463A2.10956,2.10956,0,0,1,271.07465,315.00247Z"/></g><g id="change1_427"><path fill="#00aeef" d="M377.92042,187.00516a2.02582,2.02582,0,1,1-1.97008-2.008A2.102,2.102,0,0,1,377.92042,187.00516Z"/></g><g id="change1_428"><path fill="#00aeef" d="M48.36965,260.30695a2.064,2.064,0,1,1,2.03063,2.13088A2.11621,2.11621,0,0,1,48.36965,260.30695Z"/></g><g id="change1_429"><path fill="#00aeef" d="M71.52518,178.37131a2.03946,2.03946,0,1,1,2.02985-1.97488A2.11085,2.11085,0,0,1,71.52518,178.37131Z"/></g><g id="change1_430"><path fill="#00aeef" d="M377.88877,323.84978a2.00494,2.00494,0,1,1-1.73881-2.2072A2.07165,2.07165,0,0,1,377.88877,323.84978Z"/></g><g id="change1_431"><path fill="#00aeef" d="M167.95782,176.38846a2.0117,2.0117,0,1,1-1.917-2.06725A2.08575,2.08575,0,0,1,167.95782,176.38846Z"/></g><g id="change1_432"><path fill="#00aeef" d="M409.38245,302.60251a2.01174,2.01174,0,1,1-1.91705-2.06724A2.0858,2.0858,0,0,1,409.38245,302.60251Z"/></g><g id="change1_433"><path fill="#00aeef" d="M449.51747,262.68335a2.01107,2.01107,0,1,1,2.03258-1.95185A2.08283,2.08283,0,0,1,449.51747,262.68335Z"/></g><g id="change1_434"><path fill="#00aeef" d="M357.16589,208.08183a2.05835,2.05835,0,1,1-2.12121-2.03186A2.10942,2.10942,0,0,1,357.16589,208.08183Z"/></g><g id="change1_435"><path fill="#00aeef" d="M271.11808,346.48165a2.06268,2.06268,0,1,1,2.0136-2.14813A2.11,2.11,0,0,1,271.11808,346.48165Z"/></g><g id="change1_436"><path fill="#00aeef" d="M69.55093,187.079a1.96546,1.96546,0,1,1,2.05769,1.90921A2.00439,2.00439,0,0,1,69.55093,187.079Z"/></g><g id="change1_437"><path fill="#00aeef" d="M438.91687,231.15814a1.96506,1.96506,0,1,1,1.89744-2.06955A2.00528,2.00528,0,0,1,438.91687,231.15814Z"/></g><g id="change1_438"><path fill="#00aeef" d="M344.42244,300.58106a1.96567,1.96567,0,1,1-1.96994,1.99689A2.00339,2.00339,0,0,1,344.42244,300.58106Z"/></g><g id="change1_439"><path fill="#00aeef" d="M176.58167,142.88776a1.96559,1.96559,0,1,1-1.9091,2.05783A2.00435,2.00435,0,0,1,176.58167,142.88776Z"/></g><g id="change1_440"><path fill="#00aeef" d="M367.38391,186.98319a1.883,1.883,0,1,1-1.88544-1.843A1.82355,1.82355,0,0,1,367.38391,186.98319Z"/></g><g id="change1_441"><path fill="#00aeef" d="M208.08571,164.055a1.88309,1.88309,0,1,1-1.85316,1.87523A1.82225,1.82225,0,0,1,208.08571,164.055Z"/></g><g id="change1_442"><path fill="#00aeef" d="M146.72611,323.26771a1.86372,1.86372,0,1,1-1.929-1.79631A1.79895,1.79895,0,0,1,146.72611,323.26771Z"/></g><g id="change1_443"><path fill="#00aeef" d="M113.34676,178.14712a1.8156,1.8156,0,1,1,1.85454-1.84955A1.76832,1.76832,0,0,1,113.34676,178.14712Z"/></g><g id="change1_444"><path fill="#00aeef" d="M386.28667,321.78622a1.84575,1.84575,0,1,1-1.84321,1.8835A1.78561,1.78561,0,0,1,386.28667,321.78622Z"/></g><g id="change1_445"><path fill="#00aeef" d="M461.748,239.56666a1.81509,1.81509,0,1,1-1.76173-1.79442A1.76887,1.76887,0,0,1,461.748,239.56666Z"/></g><g id="change1_446"><path fill="#00aeef" d="M199.24,291.88033a1.81534,1.81534,0,1,1-1.86378-1.84061A1.76829,1.76829,0,0,1,199.24,291.88033Z"/></g><g id="change1_447"><path fill="#00aeef" d="M251.83047,165.953a1.84587,1.84587,0,1,1-1.8665-1.8604A1.78785,1.78785,0,0,1,251.83047,165.953Z"/></g><g id="change1_448"><path fill="#00aeef" d="M71.63792,164.12236a1.81936,1.81936,0,1,1-1.93089,1.61948A1.787,1.787,0,0,1,71.63792,164.12236Z"/></g><g id="change1_449"><path fill="#00aeef" d="M165.93524,143.06019a1.793,1.793,0,1,1-1.78017,1.76776A1.77127,1.77127,0,0,1,165.93524,143.06019Z"/></g><g id="change1_450"><path fill="#00aeef" d="M314.75523,155.55141a1.815,1.815,0,1,1-1.73328-1.82285A1.76659,1.76659,0,0,1,314.75523,155.55141Z"/></g><g id="change1_451"><path fill="#00aeef" d="M312.96092,304.361a1.81522,1.81522,0,1,1,1.79428-1.76182A1.76894,1.76894,0,0,1,312.96092,304.361Z"/></g><g id="change1_452"><path fill="#00aeef" d="M438.82462,283.25318a1.79285,1.79285,0,1,1,1.81689-1.731A1.77152,1.77152,0,0,1,438.82462,283.25318Z"/></g><g id="change1_453"><path fill="#00aeef" d="M83.679,155.495a1.77022,1.77022,0,1,1-1.85574-1.72125A1.78511,1.78511,0,0,1,83.679,155.495Z"/></g><g id="change1_454"><path fill="#00aeef" d="M145.11948,199.12694a1.71038,1.71038,0,1,1,1.751-1.66876A1.80364,1.80364,0,0,1,145.11948,199.12694Z"/></g><g id="change1_455"><path fill="#00aeef" d="M104.76268,291.861a1.77072,1.77072,0,1,1-1.8008-1.776A1.78633,1.78633,0,0,1,104.76268,291.861Z"/></g><g id="change1_456"><path fill="#00aeef" d="M440.559,302.58283a1.71014,1.71014,0,1,1-1.673-1.74679A1.803,1.803,0,0,1,440.559,302.58283Z"/></g><g id="change1_457"><path fill="#00aeef" d="M71.58708,195.67316a1.74538,1.74538,0,1,1-1.81116,1.59916A1.81516,1.81516,0,0,1,71.58708,195.67316Z"/></g><g id="change1_458"><path fill="#00aeef" d="M438.81226,293.86167a1.71025,1.71025,0,1,1,1.74671-1.673A1.803,1.803,0,0,1,438.81226,293.86167Z"/></g><g id="change1_459"><path fill="#00aeef" d="M167.65725,187.06077a1.71022,1.71022,0,1,1-1.672-1.74779A1.80331,1.80331,0,0,1,167.65725,187.06077Z"/></g><g id="change1_460"><path fill="#00aeef" d="M430.22568,312.89143a1.77021,1.77021,0,1,1-1.85568-1.72127A1.78513,1.78513,0,0,1,430.22568,312.89143Z"/></g><g id="change1_461"><path fill="#00aeef" d="M218.44112,314.684a1.74523,1.74523,0,1,1,1.80759-1.6032A1.8167,1.8167,0,0,1,218.44112,314.684Z"/></g><g id="change1_462"><path fill="#00aeef" d="M218.54586,164.2279a1.71028,1.71028,0,1,1-1.74748,1.6724A1.80308,1.80308,0,0,1,218.54586,164.2279Z"/></g><g id="change1_463"><path fill="#00aeef" d="M271.106,164.2279a1.71025,1.71025,0,1,1-1.74589,1.67341A1.803,1.803,0,0,1,271.106,164.2279Z"/></g><g id="change1_464"><path fill="#00aeef" d="M449.5335,230.96318a1.77082,1.77082,0,1,1,1.77585-1.80091A1.78625,1.78625,0,0,1,449.5335,230.96318Z"/></g><g id="change1_465"><path fill="#00aeef" d="M459.92406,251.75154a1.771,1.771,0,1,1,1.77876-1.79816A1.78588,1.78588,0,0,1,459.92406,251.75154Z"/></g><g id="change1_466"><path fill="#00aeef" d="M241.33625,334.04212a1.744,1.744,0,1,1-1.65348-1.76082A1.81107,1.81107,0,0,1,241.33625,334.04212Z"/></g><g id="change1_467"><path fill="#00aeef" d="M251.69564,344.45243a1.71016,1.71016,0,1,1-1.6769-1.743A1.80291,1.80291,0,0,1,251.69564,344.45243Z"/></g><g id="change1_468"><path fill="#00aeef" d="M166.00812,199.18692a1.77039,1.77039,0,1,1,1.709-1.8678A1.78574,1.78574,0,0,1,166.00812,199.18692Z"/></g><g id="change1_469"><path fill="#00aeef" d="M228.83109,321.68a1.65566,1.65566,0,1,1-1.57388,1.79767A1.711,1.711,0,0,1,228.83109,321.68Z"/></g><g id="change1_470"><path fill="#00aeef" d="M167.58909,323.30987a1.64223,1.64223,0,1,1-1.5927-1.6183A1.69615,1.69615,0,0,1,167.58909,323.30987Z"/></g><g id="change1_471"><path fill="#00aeef" d="M199.07871,155.55163a1.654,1.654,0,1,1-1.57252-1.66208A1.70966,1.70966,0,0,1,199.07871,155.55163Z"/></g><g id="change1_472"><path fill="#00aeef" d="M304.20085,155.59265a1.65477,1.65477,0,1,1-1.53195-1.69844A1.70811,1.70811,0,0,1,304.20085,155.59265Z"/></g><g id="change1_473"><path fill="#00aeef" d="M115.02872,302.56191a1.64248,1.64248,0,1,1-1.55289-1.658A1.68579,1.68579,0,0,1,115.02872,302.56191Z"/></g><g id="change1_474"><path fill="#00aeef" d="M260.627,154.01559a1.52886,1.52886,0,1,1-1.47936,1.50323A1.45107,1.45107,0,0,1,260.627,154.01559Z"/></g><g id="change1_475"><path fill="#00aeef" d="M73.08236,218.43489a1.56817,1.56817,0,1,1-1.634-1.49977A1.50253,1.50253,0,0,1,73.08236,218.43489Z"/></g><g id="change1_476"><path fill="#00aeef" d="M419.62954,312.90451a1.56736,1.56736,0,1,1-1.6028-1.53134A1.50087,1.50087,0,0,1,419.62954,312.90451Z"/></g><g id="change1_477"><path fill="#00aeef" d="M209.34605,302.4968a1.52876,1.52876,0,1,1-1.50314-1.47941A1.45105,1.45105,0,0,1,209.34605,302.4968Z"/></g><g id="change1_478"><path fill="#00aeef" d="M73.08237,281.39347a1.5683,1.5683,0,1,1-1.63406-1.49956A1.50252,1.50252,0,0,1,73.08237,281.39347Z"/></g><g id="change1_479"><path fill="#00aeef" d="M451.10636,271.11633a1.56752,1.56752,0,1,1-1.51708-1.61662A1.50081,1.50081,0,0,1,451.10636,271.11633Z"/></g><g id="change1_480"><path fill="#00aeef" d="M397.10423,300.97841a1.57219,1.57219,0,1,1-1.69238,1.44183A1.52085,1.52085,0,0,1,397.10423,300.97841Z"/></g><g id="change1_481"><path fill="#00aeef" d="M365.56578,322.103a1.52947,1.52947,0,1,1-1.59254,1.53746A1.4493,1.4493,0,0,1,365.56578,322.103Z"/></g><g id="change1_482"><path fill="#00aeef" d="M177.81221,291.89868a1.47185,1.47185,0,1,1-1.46417-1.51558A1.50438,1.50438,0,0,1,177.81221,291.89868Z"/></g><g id="change1_483"><path fill="#00aeef" d="M344.38906,185.53042a1.49281,1.49281,0,1,1-1.464,1.5209A1.47883,1.47883,0,0,1,344.38906,185.53042Z"/></g><g id="change1_484"><path fill="#00aeef" d="M470.3192,241.05913a1.47275,1.47275,0,1,1,1.47865-1.50115A1.49849,1.49849,0,0,1,470.3192,241.05913Z"/></g><g id="change1_485"><path fill="#00aeef" d="M241.08471,176.38974a1.49356,1.49356,0,1,1-1.43459-1.55065A1.48041,1.48041,0,0,1,241.08471,176.38974Z"/></g><g id="change1_486"><path fill="#00aeef" d="M104.48987,165.90924a1.49726,1.49726,0,1,1-1.52558-1.4686A1.47146,1.47146,0,0,1,104.48987,165.90924Z"/></g><g id="change1_487"><path fill="#00aeef" d="M72.987,207.77126a1.47185,1.47185,0,1,1-2.9428.00636,1.47181,1.47181,0,0,1,2.9428-.00636Z"/></g><g id="change1_488"><path fill="#00aeef" d="M73.01289,155.48875a1.49814,1.49814,0,1,1-1.55238-1.44216A1.47267,1.47267,0,0,1,73.01289,155.48875Z"/></g><g id="change1_489"><path fill="#00aeef" d="M187.00336,143.3555a1.49738,1.49738,0,1,1-1.46943,1.52493A1.47151,1.47151,0,0,1,187.00336,143.3555Z"/></g><g id="change1_490"><path fill="#00aeef" d="M249.95717,154.04657a1.49738,1.49738,0,1,1-1.46844,1.52562A1.47151,1.47151,0,0,1,249.95717,154.04657Z"/></g><g id="change1_491"><path fill="#00aeef" d="M282.93435,334.00272a1.47195,1.47195,0,1,1-2.94287-.02824,1.47194,1.47194,0,0,1,2.94287.02824Z"/></g><g id="change1_492"><path fill="#00aeef" d="M282.93463,344.4894a1.47424,1.47424,0,1,1-1.43809-1.54164A1.508,1.508,0,0,1,282.93463,344.4894Z"/></g><g id="change1_493"><path fill="#00aeef" d="M271.041,353.61328a1.4974,1.4974,0,1,1-1.46844,1.52558A1.47148,1.47148,0,0,1,271.041,353.61328Z"/></g><g id="change1_494"><path fill="#00aeef" d="M356.60032,197.38867a1.49273,1.49273,0,1,1-1.5208-1.46414A1.47884,1.47884,0,0,1,356.60032,197.38867Z"/></g><g id="change1_495"><path fill="#00aeef" d="M366.94087,176.56186a1.44037,1.44037,0,1,1-1.46988-1.37269A1.54272,1.54272,0,0,1,366.94087,176.56186Z"/></g><g id="change1_496"><path fill="#00aeef" d="M471.76559,250.01916a1.43987,1.43987,0,1,1-1.36479-1.47736A1.53685,1.53685,0,0,1,471.76559,250.01916Z"/></g><g id="change1_497"><path fill="#00aeef" d="M459.927,227.75356a1.53979,1.53979,0,0,1,1.44567,1.397,1.52361,1.52361,0,0,1-1.50689,1.48244,1.44051,1.44051,0,0,1,.06122-2.8794Z"/></g><g id="change1_498"><path fill="#00aeef" d="M334.08444,311.5003a1.441,1.441,0,1,1-1.49993,1.34262A1.54012,1.54012,0,0,1,334.08444,311.5003Z"/></g><g id="change1_499"><path fill="#00aeef" d="M388.02473,187.00784a1.44025,1.44025,0,1,1-1.41808-1.42457A1.5386,1.5386,0,0,1,388.02473,187.00784Z"/></g><g id="change1_500"><path fill="#00aeef" d="M419.50194,218.45256a1.54521,1.54521,0,0,1-1.35323,1.48937,1.44106,1.44106,0,1,1,1.35323-1.48937Z"/></g><g id="change1_501"><path fill="#00aeef" d="M281.49917,301.1062a1.44009,1.44009,0,0,1,.00108,2.87921,1.44011,1.44011,0,1,1-.00108-2.87921Z"/></g><g id="change1_502"><path fill="#00aeef" d="M124.025,311.55383a1.387,1.387,0,0,1,.17581,2.76738,1.387,1.387,0,1,1-.17581-2.76738Z"/></g><g id="change1_503"><path fill="#00aeef" d="M323.66316,154.15746a1.47331,1.47331,0,0,1,1.35356,1.4552,1.38691,1.38691,0,0,1-2.77223-.0651A1.46171,1.46171,0,0,1,323.66316,154.15746Z"/></g><g id="change1_504"><path fill="#00aeef" d="M438.78768,311.55383a1.38635,1.38635,0,1,1-1.32408,1.48432A1.49409,1.49409,0,0,1,438.78768,311.55383Z"/></g><g id="change1_505"><path fill="#00aeef" d="M93.98557,155.61131a1.49859,1.49859,0,0,1-1.49026,1.31822,1.388,1.388,0,1,1,1.49026-1.31822Z"/></g><g id="change1_506"><path fill="#00aeef" d="M167.34983,134.44044a1.40314,1.40314,0,1,1-2.80507-.03789,1.52907,1.52907,0,0,1,1.34791-1.34668A1.49758,1.49758,0,0,1,167.34983,134.44044Z"/></g><g id="change1_507"><path fill="#00aeef" d="M188.4173,291.8449a1.38684,1.38684,0,1,1-2.77223-.05335,1.4924,1.4924,0,0,1,1.34-1.32266A1.46115,1.46115,0,0,1,188.4173,291.8449Z"/></g><g id="change1_508"><path fill="#00aeef" d="M49.04568,239.3562a1.38593,1.38593,0,0,1,2.76345-.2037,1.45167,1.45167,0,0,1-1.275,1.52383A1.49789,1.49789,0,0,1,49.04568,239.3562Z"/></g><g id="change1_509"><path fill="#00aeef" d="M324.71978,312.9586a1.46805,1.46805,0,0,1-1.44131,1.36763,1.38666,1.38666,0,0,1,.03717-2.77222A1.45836,1.45836,0,0,1,324.71978,312.9586Z"/></g><g id="change1_510"><path fill="#00aeef" d="M282.84908,176.6614A1.47332,1.47332,0,0,1,281.394,178.015a1.387,1.387,0,0,1,.0651-2.77241A1.46166,1.46166,0,0,1,282.84908,176.6614Z"/></g><g id="change1_511"><path fill="#00aeef" d="M260.31158,356.49656a1.49856,1.49856,0,0,1-1.31819-1.49027,1.388,1.388,0,1,1,1.31819,1.49027Z"/></g><g id="change1_512"><path fill="#00aeef" d="M387.52155,334.07547a1.23442,1.23442,0,1,1-1.256-1.28418A1.16267,1.16267,0,0,1,387.52155,334.07547Z"/></g><g id="change1_513"><path fill="#00aeef" d="M51.71534,270.8279a1.28484,1.28484,0,1,1-1.225-1.3426A1.21971,1.21971,0,0,1,51.71534,270.8279Z"/></g><g id="change1_514"><path fill="#00aeef" d="M135.75364,187.07625a1.28485,1.28485,0,1,1-1.23029-1.33706A1.219,1.219,0,0,1,135.75364,187.07625Z"/></g><g id="change1_515"><path fill="#00aeef" d="M177.87116,134.50883a1.23441,1.23441,0,1,1-1.256-1.2842A1.16266,1.16266,0,0,1,177.87116,134.50883Z"/></g><g id="change1_516"><path fill="#00aeef" d="M356.37986,187.03066a1.27365,1.27365,0,1,1-1.30129-1.27983A1.20529,1.20529,0,0,1,356.37986,187.03066Z"/></g><g id="change1_517"><path fill="#00aeef" d="M375.91068,177.91288a1.28392,1.28392,0,1,1,1.26764-1.29991A1.21686,1.21686,0,0,1,375.91068,177.91288Z"/></g><g id="change1_518"><path fill="#00aeef" d="M461.16644,260.61585a1.23471,1.23471,0,1,1-1.217-1.17705A1.16947,1.16947,0,0,1,461.16644,260.61585Z"/></g><g id="change1_519"><path fill="#00aeef" d="M398.21223,312.95635a1.23364,1.23364,0,1,1-1.29045-1.24981A1.1628,1.1628,0,0,1,398.21223,312.95635Z"/></g><g id="change1_520"><path fill="#00aeef" d="M156.71686,334.02142a1.20565,1.20565,0,0,1-1.232,1.16684,1.21825,1.21825,0,0,1-1.09394-1.15941,1.163,1.163,0,1,1,2.32591-.00743Z"/></g><g id="change1_521"><path fill="#00aeef" d="M228.893,164.71323a1.22542,1.22542,0,1,1-1.2155,1.19645A1.18292,1.18292,0,0,1,228.893,164.71323Z"/></g><g id="change1_522"><path fill="#00aeef" d="M124.14577,175.16879a1.1651,1.1651,0,1,1-1.22566,1.02189A1.20927,1.20927,0,0,1,124.14577,175.16879Z"/></g><g id="change1_523"><path fill="#00aeef" d="M240.75529,166.00682a1.165,1.165,0,1,1-1.02183-1.22573A1.20927,1.20927,0,0,1,240.75529,166.00682Z"/></g><g id="change1_524"><path fill="#00aeef" d="M293.31637,186.96693a1.16435,1.16435,0,1,1-1.14612-1.10686A1.20317,1.20317,0,0,1,293.31637,186.96693Z"/></g><g id="change1_525"><path fill="#00aeef" d="M135.66061,323.3463a1.19208,1.19208,0,1,1-1.21523-1.20263A1.1884,1.1884,0,0,1,135.66061,323.3463Z"/></g><g id="change1_526"><path fill="#00aeef" d="M282.65837,323.57121a1.19687,1.19687,0,1,1-1.255-1.13526A1.17985,1.17985,0,0,1,282.65837,323.57121Z"/></g><g id="change1_527"><path fill="#00aeef" d="M398.17369,323.66131a1.19565,1.19565,0,1,1-1.165-1.22564A1.18046,1.18046,0,0,1,398.17369,323.66131Z"/></g><g id="change1_528"><path fill="#00aeef" d="M155.5842,198.61244a1.19581,1.19581,0,1,1,1.165-1.22555A1.1813,1.1813,0,0,1,155.5842,198.61244Z"/></g><g id="change1_529"><path fill="#00aeef" d="M397.03811,198.6122a1.1968,1.1968,0,1,1,1.1358-1.25482A1.17736,1.17736,0,0,1,397.03811,198.6122Z"/></g><g id="change1_530"><path fill="#00aeef" d="M335.18707,165.94154a1.21838,1.21838,0,0,1-1.09408,1.15931,1.16545,1.16545,0,1,1,1.09408-1.15931Z"/></g><g id="change1_531"><path fill="#00aeef" d="M377.05772,334.07355a1.16394,1.16394,0,1,1-1.04214-1.209A1.21365,1.21365,0,0,1,377.05772,334.07355Z"/></g><g id="change1_532"><path fill="#00aeef" d="M155.51587,154.38059a1.20214,1.20214,0,0,1,1.20109,1.19785,1.21513,1.21513,0,0,1-1.125,1.12829,1.201,1.201,0,0,1-1.20049-1.198A1.214,1.214,0,0,1,155.51587,154.38059Z"/></g><g id="change1_533"><path fill="#00aeef" d="M156.74905,144.793a1.19673,1.19673,0,1,1-1.25476-1.13587A1.17738,1.17738,0,0,1,156.74905,144.793Z"/></g><g id="change1_534"><path fill="#00aeef" d="M344.42121,311.77694a1.21819,1.21819,0,0,1,1.15922,1.09409,1.16534,1.16534,0,1,1-1.15922-1.09409Z"/></g><g id="change1_535"><path fill="#00aeef" d="M282.65837,355.05048a1.19687,1.19687,0,1,1-1.255-1.1353A1.17995,1.17995,0,0,1,282.65837,355.05048Z"/></g><g id="change1_536"><path fill="#00aeef" d="M81.84774,143.74443a1.21188,1.21188,0,0,1,1.16944,1.08353,1.23321,1.23321,0,0,1-.975,1.12409,1.1947,1.1947,0,0,1-1.24065-1.00149A1.21632,1.21632,0,0,1,81.84774,143.74443Z"/></g><g id="change1_537"><path fill="#00aeef" d="M62.23031,281.47866a1.10989,1.10989,0,1,1-2.2159-.10919A1.2368,1.2368,0,0,1,61.1036,280.353,1.20749,1.20749,0,0,1,62.23031,281.47866Z"/></g><g id="change1_538"><path fill="#00aeef" d="M314.0479,145.131a1.10864,1.10864,0,1,1-2.2158-.036,1.25123,1.25123,0,0,1,1.053-1.05343A1.20881,1.20881,0,0,1,314.0479,145.131Z"/></g><g id="change1_539"><path fill="#00aeef" d="M303.65479,302.53523a1.10894,1.10894,0,1,1-2.21609-.05208A1.25029,1.25029,0,0,1,302.5,301.438,1.20653,1.20653,0,0,1,303.65479,302.53523Z"/></g><g id="change1_540"><path fill="#00aeef" d="M302.5782,146.2572a1.10851,1.10851,0,1,1,.01039-2.21581,1.24749,1.24749,0,0,1,1.06631,1.04026A1.212,1.212,0,0,1,302.5782,146.2572Z"/></g><g id="change1_541"><path fill="#00aeef" d="M428.38975,217.39394a1.21326,1.21326,0,0,1,1.17412,1.07874,1.2313,1.2313,0,0,1-.97021,1.12745,1.196,1.196,0,0,1-1.24568-.99531A1.21708,1.21708,0,0,1,428.38975,217.39394Z"/></g><g id="change1_542"><path fill="#00aeef" d="M155.5862,133.35032a1.1106,1.1106,0,1,1-.13757,2.21576,1.242,1.242,0,0,1-1.0028-1.10329A1.20928,1.20928,0,0,1,155.5862,133.35032Z"/></g><g id="change1_543"><path fill="#00aeef" d="M208.141,154.43549a1.1103,1.1103,0,1,1-.12556,2.21585,1.23056,1.23056,0,0,1-1.00845-1.097A1.20871,1.20871,0,0,1,208.141,154.43549Z"/></g><g id="change1_544"><path fill="#00aeef" d="M92.61016,292.96292a1.109,1.109,0,1,1,.05207-2.21625,1.25022,1.25022,0,0,1,1.04507,1.06138A1.20652,1.20652,0,0,1,92.61016,292.96292Z"/></g><g id="change1_545"><path fill="#00aeef" d="M407.40026,313.86442a.92486.92486,0,1,1,.896-.95231A.87049.87049,0,0,1,407.40026,313.86442Z"/></g><g id="change1_546"><path fill="#00aeef" d="M219.43268,155.57148a.92474.92474,0,1,1-.89636-.95228A.86985.86985,0,0,1,219.43268,155.57148Z"/></g><g id="change1_547"><path fill="#00aeef" d="M449.55111,282.44834a.98871.98871,0,1,1,.9762-1.035A.96362.96362,0,0,1,449.55111,282.44834Z"/></g><g id="change1_548"><path fill="#00aeef" d="M293.07781,176.65062a.9247.9247,0,1,1-.90281-.94614A.869.869,0,0,1,293.07781,176.65062Z"/></g><g id="change1_549"><path fill="#00aeef" d="M470.255,228.26872a.92724.92724,0,1,1-.85252.99558A.88293.88293,0,0,1,470.255,228.26872Z"/></g><g id="change1_550"><path fill="#00aeef" d="M62.00167,228.87722a.87045.87045,0,0,1-.9332.8948.83638.83638,0,0,1-.82209-.85712.86918.86918,0,0,1,.93-.89813A.8898.8898,0,0,1,62.00167,228.87722Z"/></g><g id="change1_551"><path fill="#00aeef" d="M40.96272,260.34734a.92481.92481,0,1,1-.9522-.89613A.87043.87043,0,0,1,40.96272,260.34734Z"/></g><g id="change1_552"><path fill="#00aeef" d="M471.20912,260.68221a.84615.84615,0,0,1-.75949.86171.86863.86863,0,0,1-.99933-.8202.843.843,0,0,1,.75345-.92221A.89225.89225,0,0,1,471.20912,260.68221Z"/></g><g id="change1_553"><path fill="#00aeef" d="M450.41758,218.41812a.88559.88559,0,0,1-.93168.9598.83641.83641,0,0,1-.8221-.8571.8586.8586,0,0,1,.92965-.89469A.84258.84258,0,0,1,450.41758,218.41812Z"/></g><g id="change1_554"><path fill="#00aeef" d="M439.83678,218.54979a.97761.97761,0,0,1-1.071.94024.99109.99109,0,0,1-.90431-1.108.99206.99206,0,0,1,1.97534.16777Z"/></g><g id="change1_555"><path fill="#00aeef" d="M175.41639,302.51857a.92483.92483,0,1,1,.89662.95164A.8704.8704,0,0,1,175.41639,302.51857Z"/></g><g id="change1_556"><path fill="#00aeef" d="M291.80884,303.53355a.97769.97769,0,0,1-.94023-1.0711.99106.99106,0,0,1,1.108-.90435.99212.99212,0,0,1-.16773,1.97545Z"/></g><g id="change1_557"><path fill="#00aeef" d="M114.60764,166.00988a.92724.92724,0,1,1-.85185-.99659A.88266.88266,0,0,1,114.60764,166.00988Z"/></g><g id="change1_558"><path fill="#00aeef" d="M176.40666,324.2071a.87093.87093,0,0,1-.92825-.77677.86038.86038,0,0,1,.87585-.95947.815.815,0,0,1,.84564.84038A.84505.84505,0,0,1,176.40666,324.2071Z"/></g><g id="change1_559"><path fill="#00aeef" d="M156.47841,165.90978a.92479.92479,0,1,1-.95268-.89642A.87054.87054,0,0,1,156.47841,165.90978Z"/></g><g id="change1_560"><path fill="#00aeef" d="M40.09247,248.99366a.98185.98185,0,0,1,.93368,1.07868.99341.99341,0,0,1-1.115.897.99289.99289,0,0,1,.18127-1.97572Z"/></g><g id="change1_561"><path fill="#00aeef" d="M354.89312,324.50313a.85111.85111,0,0,1-.93817-.763.82026.82026,0,0,1,.711-.96185.87026.87026,0,1,1,.22717,1.72484Z"/></g><g id="change1_562"><path fill="#00aeef" d="M429.33539,323.6705a.882.882,0,0,1-.99116.83417.84418.84418,0,0,1-.76487-.91325.889.889,0,0,1,.9891-.83968A.90011.90011,0,0,1,429.33539,323.6705Z"/></g><g id="change1_563"><path fill="#00aeef" d="M293.14146,165.95582a.97029.97029,0,0,1-1.042.96975.98167.98167,0,0,1-.93387-1.07845.99017.99017,0,0,1,1.97584.1087Z"/></g><g id="change1_564"><path fill="#00aeef" d="M293.07768,155.51542a.92481.92481,0,1,1-.95218-.89611A.8704.8704,0,0,1,293.07768,155.51542Z"/></g><g id="change1_565"><path fill="#00aeef" d="M271.13723,156.53131a.97426.97426,0,0,1-1.05547-.95632.99084.99084,0,0,1,1.97552-.135A.98591.98591,0,0,1,271.13723,156.53131Z"/></g><g id="change1_566"><path fill="#00aeef" d="M240.47492,155.55345a.84611.84611,0,0,1-.75949.8616.86872.86872,0,0,1-.99933-.82022.843.843,0,0,1,.75343-.92222A.89231.89231,0,0,1,240.47492,155.55345Z"/></g><g id="change1_567"><path fill="#00aeef" d="M61.14391,175.45211a.87852.87852,0,0,1,.853.9739.84126.84126,0,0,1-.89678.78207.88249.88249,0,0,1-.857-.97158A.89205.89205,0,0,1,61.14391,175.45211Z"/></g><g id="change1_568"><path fill="#00aeef" d="M355.16191,175.641a.982.982,0,0,1,.93375,1.07866.9935.9935,0,0,1-1.115.89708.99289.99289,0,0,1,.18121-1.97574Z"/></g><g id="change1_569"><path fill="#00aeef" d="M260.68234,145.74484a.89215.89215,0,1,1,.05987-1.78176.83742.83742,0,0,1,.8234.8474A.86477.86477,0,0,1,260.68234,145.74484Z"/></g><g id="change1_570"><path fill="#00aeef" d="M250.90993,144.88041a.92475.92475,0,1,1-.89635-.95228A.86983.86983,0,0,1,250.90993,144.88041Z"/></g><g id="change1_571"><path fill="#00aeef" d="M145.75893,333.83168c-.04765.75277-.529,1.16038-1.02123,1.064a.84253.84253,0,0,1-.75025-.92453c.01609-.50636.53527-.97292.99293-.79616A2.74712,2.74712,0,0,1,145.75893,333.83168Z"/></g><g id="change1_572"><path fill="#00aeef" d="M166.86147,334.05271a.91465.91465,0,1,1-.8865-.94193A.8649.8649,0,0,1,166.86147,334.05271Z"/></g><g id="change1_573"><path fill="#00aeef" d="M396.90808,333.14609a.88663.88663,0,0,1,.946.94374.83658.83658,0,0,1-.86774.81128.85938.85938,0,0,1-.88358-.94045A.84446.84446,0,0,1,396.90808,333.14609Z"/></g><g id="change1_574"><path fill="#00aeef" d="M165.93171,124.94767a.88947.88947,0,0,1-.8524-1.01955.84244.84244,0,0,1,.93305-.73977.86851.86851,0,0,1,.80377,1.01266A.85087.85087,0,0,1,165.93171,124.94767Z"/></g><g id="change1_575"><path fill="#00aeef" d="M408.25059,208.18451a.8424.8424,0,0,1-.81485.79953.87309.87309,0,0,1-.94346-.885.8911.8911,0,0,1,.962-.87052A.90735.90735,0,0,1,408.25059,208.18451Z"/></g><g id="change1_576"><path fill="#00aeef" d="M71.4843,143.86477a.99089.99089,0,0,1,.135,1.9756.98586.98586,0,0,1-1.09129-.92006A.9743.9743,0,0,1,71.4843,143.86477Z"/></g><g id="change1_577"><path fill="#00aeef" d="M176.28358,311.96726a.97441.97441,0,1,1-.91527.95659A.94108.94108,0,0,1,176.28358,311.96726Z"/></g><g id="change1_578"><path fill="#00aeef" d="M281.26944,312.0446c.75277.04764,1.16034.529,1.06392,1.02131a.84247.84247,0,0,1-.92444.75026c-.50627-.01608-.97291-.53536-.79609-.993A2.74644,2.74644,0,0,1,281.26944,312.0446Z"/></g><g id="change1_579"><path fill="#00aeef" d="M62.03659,165.95938a.91461.91461,0,1,1-.89289-.93592A.86444.86444,0,0,1,62.03659,165.95938Z"/></g><g id="change1_580"><path fill="#00aeef" d="M313.814,312.898a.86913.86913,0,1,1-1.737.01086.81435.81435,0,0,1,.85806-.82768A.84366.84366,0,0,1,313.814,312.898Z"/></g><g id="change1_581"><path fill="#00aeef" d="M271.02633,364.623a.89365.89365,0,0,1,.91793.97564.84127.84127,0,0,1-.8968.78206.86872.86872,0,0,1-.85269-.97093A.84582.84582,0,0,1,271.02633,364.623Z"/></g></svg>